<?xml version="1.0" standalone="no"?>
<!DOCTYPE svg PUBLIC "-//W3C//DTD SVG 20010904//EN"
 "http://www.w3.org/TR/2001/REC-SVG-20010904/DTD/svg10.dtd">
<svg version="1.0" xmlns="http://www.w3.org/2000/svg"
 width="369.000000pt" height="369.000000pt" viewBox="0 0 369.000000 369.000000"
 preserveAspectRatio="xMidYMid meet">
<metadata>
Created by potrace 1.14, written by Peter Selinger 2001-2017
</metadata>
<g transform="translate(0.000000,369.000000) scale(0.100000,-0.100000)"
fill="#000000" stroke="none">
<path d="M1485 3043 c-16 -9 -33 -21 -37 -26 -4 -7 -11 -7 -21 2 -11 8 -17 9
-22 1 -3 -6 -10 -8 -15 -5 -5 3 -12 -4 -15 -16 -5 -14 -13 -19 -26 -16 -10 3
-19 1 -19 -4 0 -4 -7 -5 -17 -2 -11 4 -14 3 -9 -5 4 -7 2 -12 -3 -12 -6 0 -11
4 -11 10 0 5 -6 7 -14 4 -8 -3 -12 -12 -9 -19 3 -10 -2 -13 -21 -9 -14 2 -26
1 -25 -3 3 -20 -2 -27 -11 -13 -8 13 -10 12 -10 -3 0 -10 -4 -16 -9 -13 -10 7
-63 -18 -56 -26 3 -2 -3 -5 -12 -5 -10 0 -21 5 -25 11 -5 6 -8 1 -8 -13 0 -17
-4 -22 -16 -17 -11 4 -15 2 -12 -6 6 -17 -29 -51 -38 -37 -4 7 -12 5 -23 -5
-10 -9 -20 -13 -24 -10 -4 4 -4 -3 -2 -15 2 -12 0 -19 -6 -16 -5 4 -16 0 -24
-9 -18 -18 -20 -30 -2 -20 9 6 9 5 0 -8 -7 -8 -9 -19 -5 -23 4 -5 1 -5 -6 -1
-7 4 -15 1 -18 -9 -4 -9 -13 -14 -21 -11 -8 3 -11 1 -8 -4 3 -6 -1 -10 -10
-10 -10 0 -13 -5 -9 -12 5 -8 2 -8 -10 1 -9 8 -16 10 -15 5 4 -23 -2 -35 -13
-28 -10 6 -10 5 -1 -7 17 -21 -18 -53 -37 -36 -9 9 -11 9 -7 1 4 -7 0 -17 -8
-24 -8 -7 -13 -16 -10 -20 3 -5 1 -11 -5 -15 -6 -4 -7 -11 -4 -17 4 -6 2 -8
-3 -5 -6 4 -19 -3 -29 -16 -19 -21 -19 -21 1 -7 19 14 19 14 6 -3 -8 -10 -21
-15 -29 -12 -12 4 -12 3 -3 -9 8 -10 9 -16 1 -21 -5 -3 -10 -11 -10 -16 0 -6
6 -7 13 -3 8 5 8 2 -2 -9 -7 -9 -9 -17 -4 -17 5 0 9 -8 8 -17 -2 -26 -22 -59
-31 -51 -4 4 -13 0 -21 -10 -12 -16 -13 -16 -7 1 3 9 2 17 -4 17 -6 0 -9 -11
-7 -25 1 -18 -1 -22 -9 -16 -8 7 -12 4 -13 -9 -1 -11 2 -22 7 -25 12 -7 -12
-52 -35 -65 -18 -9 -18 -10 -1 -5 16 5 17 3 6 -10 -7 -8 -16 -12 -21 -9 -5 3
-6 -2 -3 -10 3 -9 11 -13 18 -9 6 3 6 1 -1 -8 -7 -7 -13 -22 -13 -34 0 -12 -4
-25 -9 -30 -5 -6 -11 -23 -14 -40 -3 -16 -6 -34 -7 -40 -1 -5 -1 -13 0 -17 1
-5 3 -14 4 -20 1 -7 8 -12 15 -10 7 1 10 -2 6 -8 -3 -6 -9 -8 -13 -6 -4 2 -13
-2 -20 -10 -10 -11 -10 -14 0 -14 8 0 6 -5 -5 -11 -14 -8 -15 -14 -5 -32 10
-20 9 -21 -5 -9 -13 11 -15 10 -10 -10 3 -13 11 -29 17 -37 9 -12 8 -13 -3 -6
-11 6 -13 4 -8 -8 4 -10 2 -17 -5 -17 -7 0 -6 -5 2 -15 7 -8 9 -15 4 -15 -5 0
-2 -5 6 -10 8 -5 10 -10 4 -10 -6 0 -11 -7 -11 -15 0 -11 4 -12 14 -3 11 9 12
7 7 -7 -5 -11 -1 -21 10 -27 9 -5 13 -14 9 -21 -12 -19 -12 -36 -2 -43 6 -4 6
-10 0 -18 -11 -13 -10 -34 3 -55 6 -10 5 -12 -2 -7 -7 4 -12 2 -12 -3 0 -6 9
-16 20 -23 11 -7 20 -16 20 -21 0 -4 -4 -5 -10 -2 -6 3 -7 -1 -4 -9 3 -9 10
-13 16 -10 5 3 4 -4 -4 -16 -10 -18 -10 -24 -1 -27 7 -3 13 -9 13 -14 0 -6 -4
-7 -10 -4 -5 3 -10 1 -10 -4 0 -10 13 -15 31 -13 3 1 5 -9 5 -21 -1 -12 5 -31
13 -41 9 -11 11 -16 4 -13 -6 4 -14 3 -18 -3 -3 -5 0 -10 7 -10 7 0 18 -11 25
-25 6 -14 7 -23 3 -20 -4 3 -3 -6 3 -19 7 -13 15 -22 19 -20 8 5 12 -10 9 -34
-2 -15 24 -43 33 -35 3 4 6 -1 6 -11 0 -9 4 -14 10 -11 5 3 10 1 10 -5 0 -6 4
-9 8 -6 5 3 9 -1 9 -9 0 -8 -5 -11 -11 -8 -6 4 -5 -1 3 -10 7 -9 18 -14 25
-10 6 4 4 -2 -4 -12 -9 -11 -10 -16 -2 -11 11 7 17 -5 13 -28 -1 -5 6 -3 15 5
12 9 15 9 10 2 -4 -8 -2 -13 6 -13 10 0 9 -3 -2 -11 -12 -9 -11 -10 8 -6 13 3
20 1 16 -5 -7 -11 34 -58 50 -58 6 0 22 -18 35 -40 14 -22 27 -38 29 -35 3 2
-1 13 -9 22 -13 16 -12 17 4 4 9 -7 17 -18 17 -24 0 -12 59 -67 72 -67 5 0 6
-4 3 -10 -3 -5 1 -10 10 -10 10 0 13 -5 9 -12 -5 -8 -2 -9 10 -5 10 4 15 3 11
-3 -3 -6 1 -20 11 -32 14 -20 16 -21 10 -3 -7 18 -5 18 14 -2 25 -27 38 -31
19 -5 -13 16 -13 16 7 -1 11 -9 24 -14 28 -10 4 4 4 -1 0 -12 -7 -17 -6 -18 8
-7 13 10 17 10 22 -3 3 -8 9 -15 13 -14 19 3 34 -2 29 -10 -3 -5 4 -11 16 -14
12 -4 25 -2 29 4 4 7 9 4 12 -6 5 -11 3 -14 -6 -9 -9 5 -9 4 0 -6 16 -18 43
-22 43 -7 0 7 5 4 11 -6 9 -15 13 -16 27 -5 9 7 13 9 10 3 -3 -5 0 -15 7 -22
11 -10 15 -10 18 0 4 9 6 9 6 0 1 -8 15 -13 36 -13 19 0 35 -5 35 -11 0 -6 9
-9 20 -6 11 3 18 1 15 -3 -3 -5 -1 -11 5 -15 5 -3 10 -1 10 6 0 7 3 9 7 6 3
-4 12 -2 20 5 11 9 12 7 7 -8 -5 -17 -5 -18 8 -2 13 15 15 15 24 1 8 -14 13
-14 32 -2 20 12 24 12 32 -1 9 -14 15 -7 11 14 -1 5 4 4 12 -2 8 -7 17 -9 20
-5 4 3 7 0 7 -8 0 -11 2 -11 10 1 8 12 10 12 10 1 0 -8 3 -11 7 -8 3 4 17 -3
31 -15 13 -13 23 -18 22 -13 -5 21 1 29 10 15 9 -13 11 -13 20 0 7 11 10 11
10 2 0 -7 5 -10 10 -7 6 4 8 10 5 15 -3 4 3 7 13 6 9 0 16 4 15 11 -2 7 4 10
12 7 8 -4 15 -10 15 -16 0 -5 5 -6 10 -3 6 4 8 10 5 15 -3 5 4 7 16 5 13 -3
26 -10 31 -17 6 -10 8 -10 8 1 0 8 3 11 7 8 3 -4 16 1 27 10 12 10 15 11 9 3
-21 -23 -15 -35 8 -14 11 10 19 14 17 9 -2 -6 2 -10 7 -10 6 0 9 3 7 8 -1 4 2
8 8 8 5 1 15 3 20 4 6 1 15 3 21 4 5 0 7 7 3 14 -5 7 0 6 11 -3 10 -8 16 -10
12 -4 -4 7 2 14 13 17 11 3 20 12 20 20 0 8 9 17 20 20 14 4 18 10 14 24 -6
17 -6 17 8 -1 14 -17 15 -17 21 -2 4 10 10 15 14 13 5 -2 19 7 33 21 16 16 18
20 5 11 -18 -13 -19 -13 -6 4 7 9 23 17 35 18 11 0 15 3 8 6 -10 4 -9 9 5 19
17 13 17 14 -2 8 -19 -5 -19 -5 -1 10 10 8 15 20 10 27 -5 8 -3 10 6 4 10 -6
12 -1 8 19 -5 23 -3 25 11 14 9 -7 13 -8 8 -3 -4 4 1 17 10 28 11 12 12 17 4
12 -10 -5 -12 -4 -7 3 4 7 15 12 24 13 11 0 12 3 5 6 -7 2 -13 9 -13 14 0 6 6
7 13 3 9 -6 9 -4 -1 8 -11 14 -9 20 10 39 13 12 16 18 8 14 -10 -6 -9 -2 3 12
11 13 14 23 8 27 -7 5 -7 15 0 33 9 24 8 25 -7 12 -16 -13 -16 -12 -5 9 7 13
10 30 7 38 -3 9 -1 12 4 9 6 -3 10 1 10 9 0 9 -6 16 -12 16 -9 0 -8 4 2 10 8
5 11 10 5 10 -18 1 19 20 39 20 14 0 17 -5 13 -21 -3 -12 0 -22 9 -26 11 -4
12 -9 3 -19 -9 -11 -8 -14 2 -14 11 0 11 -2 -1 -10 -10 -6 -11 -10 -2 -10 14
0 12 -21 -3 -32 -6 -5 -5 -8 4 -8 11 0 11 -3 0 -17 -8 -9 -9 -14 -3 -10 11 7
29 -19 25 -36 -1 -5 8 -11 19 -14 11 -3 17 -10 13 -16 -3 -6 -1 -7 5 -3 6 3
17 -1 24 -9 7 -9 21 -24 31 -33 9 -9 17 -21 17 -27 0 -13 38 -37 49 -31 4 3 8
-1 8 -9 0 -8 -5 -11 -11 -8 -6 4 -1 -6 12 -21 12 -16 19 -33 16 -38 -4 -6 2
-6 13 1 17 8 23 5 42 -19 20 -28 71 -65 57 -41 -4 6 -2 11 3 11 6 0 11 -5 11
-11 0 -5 5 -7 10 -4 6 3 10 1 10 -5 0 -6 5 -8 10 -5 6 3 10 2 10 -3 0 -5 9
-12 21 -15 16 -4 19 -2 14 11 -4 12 0 11 17 -5 13 -12 39 -24 58 -26 19 -3 35
-6 35 -7 0 -1 8 -3 17 -5 12 -2 15 2 11 13 -4 10 2 7 16 -7 12 -12 27 -19 34
-14 8 5 8 2 -1 -9 -10 -13 -10 -18 -1 -24 8 -4 9 -3 5 4 -4 7 -2 12 3 12 6 0
11 -5 11 -12 0 -6 6 -4 13 7 11 14 16 15 22 5 6 -9 4 -11 -5 -5 -9 6 -11 4 -5
-4 5 -9 11 -9 17 -3 6 6 17 8 26 5 10 -4 13 -2 8 5 -5 8 -2 10 8 6 9 -3 16
-10 16 -16 0 -5 5 -6 10 -3 6 4 7 12 3 18 -4 7 0 6 10 -2 9 -7 17 -10 17 -7 0
4 9 2 20 -4 15 -8 23 -6 39 12 15 15 18 25 10 34 -7 8 -6 14 2 20 8 5 9 3 4
-6 -6 -9 -4 -11 4 -6 9 6 8 13 -6 29 -10 11 -12 17 -5 13 6 -4 12 -3 12 1 0 5
-6 15 -12 22 -9 9 -9 12 -1 7 14 -8 21 11 15 41 -3 14 -9 20 -16 16 -8 -5 -8
-3 1 8 13 16 15 137 2 145 -4 2 -6 11 -3 19 4 8 10 12 15 9 5 -3 6 2 3 10 -3
9 -11 13 -18 9 -6 -3 -6 -1 2 8 14 15 16 43 2 34 -6 -3 -7 1 -4 9 3 9 10 13
15 10 5 -3 6 2 3 10 -3 9 -11 13 -18 9 -6 -3 -6 -1 2 8 15 16 16 59 1 59 -5 0
-7 5 -4 10 3 5 -2 10 -12 10 -14 0 -15 2 -4 9 19 12 -8 21 -31 10 -11 -6 -22
-4 -32 7 -9 8 -16 11 -16 6 0 -5 -7 -9 -15 -9 -8 0 -15 5 -15 10 0 5 -6 4 -14
-2 -11 -9 -17 -6 -30 14 -9 14 -21 23 -27 19 -6 -3 -9 2 -7 12 2 12 -2 18 -11
16 -12 -3 -12 -1 0 14 9 12 9 15 2 10 -8 -4 -13 -2 -13 4 0 6 -5 8 -12 4 -6
-4 -8 -3 -4 4 3 5 -5 23 -19 40 -19 23 -22 32 -12 42 9 10 9 11 0 6 -8 -4 -11
1 -10 14 1 11 6 20 12 20 5 0 3 4 -5 10 -8 5 -11 12 -7 16 4 4 1 14 -6 22 -8
10 -8 13 -1 9 7 -4 15 0 18 9 3 8 2 12 -3 9 -11 -6 -9 35 2 52 4 7 -1 16 -10
22 -17 10 -17 10 2 11 11 0 16 4 10 8 -12 8 -12 43 0 62 5 8 4 11 -2 7 -6 -4
-14 0 -17 9 -3 8 -2 13 3 10 5 -3 11 4 15 17 9 33 7 49 -4 42 -13 -8 -13 1 0
25 7 13 7 21 -2 26 -7 5 -8 3 -3 -6 5 -8 4 -11 -3 -6 -15 9 -3 38 12 29 7 -4
7 -2 -1 7 -8 9 -9 19 -2 32 5 10 7 22 4 27 -3 5 1 12 7 14 8 3 6 6 -4 6 -10 1
-18 6 -18 12 0 5 5 7 11 3 8 -5 8 -1 0 13 -7 14 -7 23 0 30 8 8 7 13 -2 18 -8
6 -10 4 -4 -6 8 -12 6 -12 -8 0 -18 14 -22 22 -9 20 4 -1 14 -1 22 0 12 1 12
3 2 10 -8 4 -14 12 -14 16 0 4 6 12 14 16 10 7 9 9 -5 9 -10 0 -16 4 -13 9 3
5 -2 12 -11 15 -15 6 -15 8 -3 16 12 8 11 10 -5 10 -19 1 -19 1 -2 11 9 6 15
15 11 20 -3 6 -6 26 -6 45 0 19 -4 34 -10 34 -5 0 -6 5 -3 10 3 6 1 10 -5 10
-6 0 -8 5 -5 10 3 6 1 10 -6 10 -9 0 -9 3 0 14 9 11 9 16 0 22 -8 5 -9 3 -4
-6 5 -9 4 -11 -4 -6 -9 6 -9 11 0 22 9 11 8 14 -7 14 -14 0 -15 3 -6 12 9 9 7
15 -6 25 -9 8 -11 11 -4 8 11 -6 11 -3 0 14 -13 22 -34 30 -22 9 4 -7 3 -9 -1
-5 -5 4 -11 20 -13 35 -2 15 -7 29 -13 30 -5 2 -9 10 -9 18 0 8 -5 14 -11 14
-6 0 -9 9 -6 19 3 12 -1 22 -9 25 -8 3 -14 12 -14 21 0 9 -9 15 -22 15 -19 0
-20 2 -8 10 12 8 12 10 1 10 -8 0 -11 7 -8 20 3 11 1 18 -4 14 -5 -3 -9 2 -9
10 0 9 -5 16 -11 16 -5 0 -7 -5 -3 -12 4 -7 3 -8 -4 -4 -6 4 -8 14 -5 23 4 10
2 14 -4 10 -5 -4 -19 1 -29 9 -10 9 -13 13 -6 9 6 -3 12 -1 12 4 0 6 -9 11
-20 11 -12 0 -25 10 -32 25 -6 14 -22 32 -35 40 -13 9 -21 21 -17 27 5 7 2 9
-8 6 -8 -4 -21 -2 -29 3 -11 7 -10 9 6 10 15 0 12 4 -12 15 -18 8 -33 18 -33
22 0 5 -8 8 -17 8 -10 -1 -20 4 -22 9 -8 18 -26 33 -33 28 -5 -2 -8 3 -8 11 0
10 -6 13 -15 10 -16 -7 -48 14 -40 25 2 4 -2 8 -10 8 -8 0 -11 -5 -8 -11 4 -6
-3 -3 -14 7 -16 14 -22 15 -26 5 -3 -7 -6 -3 -6 10 -1 12 -6 22 -12 22 -5 0
-7 -4 -4 -10 3 -6 -1 -7 -9 -4 -9 3 -16 10 -16 15 0 5 -3 8 -7 8 -22 -4 -33 2
-27 14 4 6 4 9 -1 5 -4 -4 -15 -2 -23 5 -13 10 -14 9 -7 -2 6 -11 4 -13 -11
-6 -10 4 -27 7 -37 7 -9 0 -15 3 -12 9 4 5 1 9 -5 9 -6 0 -8 5 -4 11 4 7 1 10
-7 7 -8 -3 -27 -1 -42 3 -22 6 -27 5 -20 -4 4 -7 1 -6 -7 3 -29 28 -58 41 -66
28 -4 -6 -3 -8 3 -5 5 3 10 0 10 -8 0 -12 -3 -12 -16 -2 -9 6 -19 17 -23 22
-5 6 -8 4 -8 -4 0 -8 -3 -11 -7 -8 -3 4 -12 2 -20 -5 -11 -9 -12 -7 -7 8 4 15
1 14 -17 -6 -14 -16 -20 -19 -16 -8 3 10 2 20 -3 23 -6 4 -10 0 -10 -7 0 -9
-3 -9 -10 2 -6 10 -10 11 -10 3 0 -7 -7 -13 -15 -13 -8 0 -15 5 -15 11 0 5 -5
7 -10 4 -6 -4 -8 -11 -5 -16 9 -14 -2 -11 -19 7 -9 8 -16 11 -16 5 0 -6 -7
-11 -15 -11 -8 0 -15 5 -15 11 0 5 -5 7 -10 4 -6 -4 -8 -11 -5 -16 9 -14 -2
-11 -19 7 -9 8 -16 11 -16 5 0 -6 -7 -11 -15 -11 -8 0 -15 5 -15 11 0 5 -5 7
-10 4 -6 -4 -8 -11 -5 -16 9 -14 -2 -11 -19 7 -9 8 -16 11 -16 5 0 -6 -7 -11
-15 -11 -8 0 -15 5 -15 11 0 5 -5 7 -10 4 -6 -4 -8 -11 -5 -16 9 -14 -2 -11
-19 7 -9 8 -16 11 -16 5 0 -6 -7 -11 -15 -11 -8 0 -15 5 -15 11 0 5 -5 7 -10
4 -6 -4 -8 -11 -5 -16 3 -5 -1 -6 -9 -3 -9 3 -13 10 -10 15 7 12 5 11 -31 -8z
m948 -490 c-7 -18 -32 -16 -40 2 -3 9 2 22 13 30 17 12 20 11 25 -3 3 -9 4
-23 2 -29z m-1646 12 c0 -8 -4 -12 -9 -9 -5 3 -6 10 -3 15 9 13 12 11 12 -6z
m987 -89 c-4 -9 2 -13 20 -11 14 2 29 6 35 9 5 4 13 1 17 -5 4 -8 9 -7 16 2 8
11 9 10 4 -3 -3 -11 2 -22 14 -28 17 -9 19 -8 13 7 -5 15 -3 16 7 6 11 -10 17
-10 29 0 12 10 14 9 8 -5 -3 -10 -2 -18 3 -18 6 0 10 5 10 12 0 9 3 9 11 1 7
-7 21 -8 39 -3 24 7 28 6 23 -8 -5 -12 -2 -14 11 -9 9 4 15 3 11 -2 -3 -5 -1
-12 5 -16 5 -3 10 0 10 7 1 7 6 4 13 -7 7 -11 23 -21 36 -23 14 -1 32 -9 40
-16 9 -7 22 -11 29 -9 6 3 12 0 12 -7 0 -6 5 -8 10 -5 6 3 10 -1 10 -10 0 -9
4 -14 9 -11 5 3 11 -4 14 -15 4 -15 11 -20 22 -15 9 3 13 2 10 -4 -3 -5 7 -21
22 -35 22 -20 24 -24 8 -19 -15 6 -14 2 6 -14 15 -12 32 -35 39 -52 7 -16 16
-27 21 -24 5 3 9 -2 9 -11 0 -10 5 -13 13 -9 8 5 8 2 -2 -9 -7 -9 -10 -17 -5
-17 5 0 1 -5 -9 -11 -9 -5 -22 -7 -29 -3 -7 5 -9 2 -6 -8 4 -8 0 -15 -8 -15
-7 0 -11 4 -8 9 8 12 -30 10 -43 -3 -8 -8 -13 -7 -18 2 -6 8 -4 10 5 4 9 -5
11 -4 6 4 -6 9 -11 9 -22 0 -8 -6 -14 -8 -14 -3 0 5 -7 0 -15 -10 -8 -11 -18
-17 -21 -13 -4 4 -13 -1 -21 -11 -8 -9 -11 -11 -7 -3 5 10 3 12 -5 7 -7 -5
-10 -15 -7 -23 3 -8 2 -12 -3 -9 -4 3 -17 -2 -27 -10 -10 -9 -14 -13 -7 -10 6
4 14 3 17 -2 2 -4 -6 -9 -20 -10 -48 -3 -54 -6 -54 -18 0 -8 -6 -11 -17 -7
-12 5 -15 2 -10 -10 4 -11 1 -17 -8 -17 -8 0 -16 -6 -16 -12 -1 -7 -2 -17 -4
-23 -1 -5 -3 -16 -3 -23 -1 -7 -6 -10 -12 -7 -9 6 -14 -7 -11 -27 0 -4 -6 -5
-14 -2 -10 4 -15 0 -15 -11 0 -9 -4 -14 -9 -11 -11 7 -9 -13 3 -32 4 -7 4 -11
-1 -10 -4 2 -8 -1 -8 -7 0 -5 5 -9 10 -7 6 1 -2 -8 -17 -22 -20 -18 -24 -26
-15 -36 9 -10 9 -11 -2 -5 -10 6 -13 4 -8 -7 3 -9 1 -20 -5 -26 -6 -6 -6 -12
3 -17 8 -6 10 -4 4 5 -6 9 -4 11 5 5 10 -6 9 -11 -5 -22 -12 -8 -14 -13 -6
-13 11 0 11 -3 0 -17 -10 -11 -10 -14 -1 -9 7 4 12 2 12 -4 0 -6 5 -8 12 -4 7
4 8 3 4 -5 -4 -6 -12 -8 -18 -5 -7 5 -9 2 -5 -8 3 -9 0 -21 -6 -28 -9 -10 -9
-11 1 -6 6 4 12 3 12 -1 0 -5 -6 -15 -12 -22 -11 -11 -10 -12 2 -6 12 7 13 6
3 -7 -7 -8 -9 -18 -5 -22 4 -4 1 -6 -6 -4 -18 4 -35 -39 -20 -48 7 -5 8 -2 3
6 -6 9 -4 11 4 6 9 -6 8 -12 -4 -26 -14 -15 -14 -19 -1 -29 14 -12 11 -45 -3
-36 -4 2 -8 -2 -8 -10 0 -8 4 -12 8 -10 4 3 6 -6 5 -20 0 -14 -5 -25 -10 -25
-5 0 -2 -8 5 -17 8 -9 9 -14 2 -10 -6 4 -22 -3 -35 -15 -16 -15 -17 -18 -3 -8
20 15 20 15 1 -8 -11 -12 -25 -21 -32 -18 -8 3 -11 0 -8 -8 3 -7 -3 -16 -13
-20 -10 -3 -24 -9 -32 -12 -10 -5 -11 -3 -5 7 6 11 4 11 -10 0 -15 -13 -19
-13 -27 0 -6 10 -9 11 -9 1 0 -10 -5 -10 -22 -1 -22 12 -22 11 -8 -6 14 -17
13 -17 -5 -8 -11 6 -26 8 -34 5 -9 -3 -11 0 -6 9 6 11 5 12 -6 1 -17 -16 -32
-16 -23 1 5 8 2 8 -9 -2 -11 -9 -17 -10 -17 -2 0 6 -7 11 -16 11 -9 0 -12 -5
-8 -12 4 -8 3 -9 -2 -5 -5 5 -9 14 -9 20 0 7 -4 14 -10 15 -5 2 -19 9 -30 15
-18 9 -19 9 -6 -7 12 -14 12 -16 -3 -10 -9 3 -16 11 -16 17 0 6 -3 8 -6 4 -4
-3 -13 1 -21 9 -8 8 -19 12 -24 9 -5 -4 -6 1 -3 9 3 9 1 16 -6 16 -6 0 -8 5
-4 13 5 7 1 7 -12 -3 -10 -8 -16 -11 -12 -6 8 10 -15 36 -33 36 -7 0 -9 3 -6
6 4 4 -2 15 -14 25 -15 13 -17 19 -7 23 7 3 3 4 -9 2 -15 -3 -20 0 -16 10 3 8
0 14 -7 14 -6 0 -8 5 -4 13 5 7 2 7 -10 -2 -15 -12 -17 -12 -14 0 2 8 -3 13
-10 11 -7 -1 -17 9 -22 23 -11 28 -22 35 -14 8 5 -15 4 -16 -5 -3 -6 9 -6 19
-1 24 12 12 1 36 -19 37 -12 0 -11 2 4 8 19 8 19 8 -2 15 -20 6 -21 10 -11 29
11 21 10 21 -7 7 -10 -8 -16 -10 -12 -4 4 7 0 17 -7 23 -8 7 -13 23 -10 37 3
16 1 23 -6 19 -16 -10 -12 2 8 21 16 17 16 18 0 11 -12 -4 -18 -2 -18 9 0 9
-5 12 -12 8 -9 -5 -9 -2 1 9 7 9 9 17 4 17 -14 0 -12 63 2 72 7 5 6 8 -1 8 -7
0 -15 7 -18 16 -3 8 -2 13 3 10 5 -3 12 1 15 10 4 12 2 15 -9 10 -19 -7 -19 1
0 21 12 11 13 19 5 28 -8 10 -8 15 1 21 9 5 8 10 -5 19 -14 11 -15 13 -1 19 8
3 15 12 15 21 0 8 4 15 8 15 5 0 9 6 10 13 1 6 3 23 5 37 2 14 -1 31 -6 38 -6
7 -6 12 1 12 9 0 36 57 34 72 -1 4 7 10 18 13 12 4 20 15 20 28 0 16 3 18 9 9
6 -10 10 -9 14 7 3 12 1 21 -5 21 -5 0 -2 7 6 16 9 8 13 20 10 26 -4 7 -2 8 5
4 6 -4 8 -13 4 -19 -4 -7 0 -6 10 2 9 7 17 20 17 29 0 8 3 12 7 9 6 -7 53 38
53 52 0 4 12 13 28 20 25 10 26 10 8 -4 -11 -8 -16 -15 -10 -15 13 1 50 30 38
31 -5 0 1 4 14 10 14 5 20 13 16 21 -5 8 -2 9 9 5 10 -4 17 -1 17 6 0 8 4 6
10 -3 9 -14 14 -7 11 13 -1 4 8 3 18 -3 13 -7 22 -7 26 0 4 6 11 8 16 4 6 -3
18 -2 27 2 9 4 26 9 36 11 11 2 26 9 35 16 12 9 13 9 7 0 -4 -8 -2 -13 6 -13
8 0 20 6 27 13 11 10 13 9 7 -3 -5 -9 -2 -9 7 2 8 10 24 19 35 21 12 2 25 6
28 10 11 11 14 8 8 -7z m-629 -455 c3 -5 2 -12 -3 -15 -5 -3 -9 1 -9 9 0 17 3
19 12 6z m-284 -1038 c13 -16 12 -17 -3 -4 -10 7 -18 15 -18 17 0 8 8 3 21
-13z m1784 -101 c-3 -3 -11 0 -18 7 -9 10 -8 11 6 5 10 -3 15 -9 12 -12z m145
-128 c0 -8 -19 -13 -24 -6 -3 5 1 9 9 9 8 0 15 -2 15 -3z"/>
<path d="M1730 550 c0 -5 5 -10 11 -10 5 0 7 5 4 10 -3 6 -8 10 -11 10 -2 0
-4 -4 -4 -10z"/>
</g>
</svg>
