<?xml version="1.0" standalone="no"?>
<!DOCTYPE svg PUBLIC "-//W3C//DTD SVG 20010904//EN"
 "http://www.w3.org/TR/2001/REC-SVG-20010904/DTD/svg10.dtd">
<svg version="1.0" xmlns="http://www.w3.org/2000/svg"
 width="512.000000pt" height="512.000000pt" viewBox="0 0 512.000000 512.000000"
 preserveAspectRatio="xMidYMid meet">
<metadata>
Created by potrace 1.14, written by Peter Selinger 2001-2017
</metadata>
<g transform="translate(0.000000,512.000000) scale(0.100000,-0.100000)"
fill="#000000" stroke="none">
<path d="M2143 4875 c0 -7 6 -11 13 -8 6 2 15 0 19 -6 4 -7 0 -8 -11 -4 -12 5
-15 3 -9 -6 6 -10 3 -11 -14 -1 -12 6 -19 15 -16 20 3 6 -1 7 -9 4 -9 -3 -16
-10 -16 -16 0 -5 4 -7 8 -4 5 3 9 -1 9 -9 0 -13 -3 -12 -18 1 -10 9 -30 18
-45 20 -20 2 -24 -1 -19 -14 5 -13 3 -14 -6 -5 -6 6 -18 9 -27 6 -10 -4 -13
-2 -8 6 9 14 -14 11 -31 -6 -17 -15 -17 -27 0 -16 15 10 57 11 51 2 -2 -4 -1
-9 3 -12 5 -2 1 -2 -7 1 -8 2 -21 4 -27 3 -41 -4 -43 -5 -38 -25 5 -17 4 -18
-4 -5 -6 9 -9 25 -7 36 3 12 -1 20 -10 20 -10 0 -11 -4 -3 -14 14 -16 5 -17
-23 -2 -15 8 -19 8 -14 0 4 -6 -5 -16 -21 -23 -15 -7 -31 -17 -35 -23 -5 -6
-8 -5 -8 3 0 6 -12 12 -26 12 -15 0 -23 4 -19 11 4 6 -11 1 -32 -10 -32 -16
-43 -17 -54 -8 -11 10 -11 9 0 -5 12 -16 15 -16 43 -2 23 12 33 13 42 4 8 -8
6 -9 -9 -4 -18 7 -19 6 -5 -12 14 -18 14 -18 -2 -5 -15 11 -22 11 -44 -4 -15
-9 -24 -13 -20 -7 3 5 -1 13 -10 16 -21 8 -24 8 -24 -5 0 -5 4 -8 8 -5 5 3 9
-1 9 -9 0 -8 -3 -13 -5 -10 -3 3 -11 0 -18 -6 -10 -8 -12 -6 -9 9 2 11 -2 23
-9 25 -7 3 -11 -5 -11 -21 0 -21 -5 -26 -27 -27 -14 0 -29 -3 -33 -7 -4 -4
-14 -4 -23 0 -15 5 -16 4 -2 -14 14 -17 13 -18 -1 -7 -9 7 -19 10 -22 7 -4 -4
-17 -7 -29 -8 -13 0 -23 -6 -23 -13 0 -6 -3 -14 -7 -18 -8 -8 -5 16 4 31 4 6
1 11 -7 11 -8 0 -12 -4 -9 -9 3 -4 0 -8 -6 -8 -6 0 -9 -4 -5 -9 3 -5 0 -13 -6
-17 -7 -4 -9 -3 -6 3 4 6 0 14 -9 17 -23 9 -24 8 -24 -13 0 -11 -9 -22 -19
-26 -14 -4 -18 -12 -14 -23 4 -11 -2 -8 -16 8 -15 16 -21 19 -17 8 3 -12 1
-15 -9 -11 -8 3 -12 9 -9 14 3 5 0 9 -5 9 -6 0 -11 -5 -11 -11 0 -5 -4 -7 -10
-4 -5 3 -10 1 -10 -6 0 -8 -4 -8 -13 -1 -10 8 -13 6 -14 -8 -1 -11 2 -22 8
-25 5 -3 6 0 3 8 -2 7 1 14 8 14 7 0 19 2 27 4 7 2 16 -3 18 -11 4 -13 3 -13
-6 0 -8 11 -11 12 -11 2 0 -7 -4 -11 -9 -8 -5 3 -11 0 -14 -8 -8 -21 -42 -12
-40 10 1 11 0 13 -3 6 -3 -6 -10 -9 -16 -6 -6 4 -6 -2 1 -14 7 -14 8 -23 1
-27 -6 -4 -8 -10 -6 -14 3 -4 -1 -8 -9 -8 -8 0 -11 5 -7 11 11 18 11 36 0 43
-6 3 -8 2 -5 -4 3 -5 -10 -17 -29 -26 -19 -10 -32 -22 -29 -27 3 -6 -1 -10
-10 -10 -10 0 -13 -5 -9 -12 4 -7 -2 -4 -14 6 -12 11 -22 14 -22 8 0 -7 5 -12
10 -12 6 0 10 -4 10 -10 0 -14 -27 -12 -34 3 -3 6 -4 -1 -3 -18 2 -26 -1 -29
-28 -32 -20 -1 -25 1 -16 6 8 5 20 7 28 4 7 -3 13 0 13 5 0 16 -18 24 -25 11
-4 -5 -13 -8 -20 -6 -8 4 -12 -3 -11 -16 1 -16 7 -21 21 -19 11 2 17 1 13 -3
-4 -4 -18 -8 -30 -9 -13 -1 -22 -6 -21 -12 2 -15 -51 -11 -63 5 -9 11 -12 12
-19 1 -6 -9 -4 -11 5 -5 10 6 12 4 7 -7 -3 -9 -1 -20 4 -25 5 -5 3 -17 -7 -29
-8 -10 -13 -14 -10 -7 3 6 3 18 0 27 -5 12 -9 13 -25 3 -10 -6 -19 -16 -19
-21 0 -4 7 -3 15 4 9 7 18 10 21 7 3 -3 -4 -10 -15 -17 -12 -6 -19 -15 -16
-20 3 -5 1 -11 -4 -15 -5 -3 -8 -15 -6 -27 3 -11 1 -17 -3 -14 -4 4 -7 13 -7
19 -1 7 -6 11 -13 9 -7 -1 -15 4 -18 12 -4 10 -11 8 -30 -11 -20 -20 -23 -28
-13 -37 9 -8 10 -8 4 3 -6 10 -4 12 5 6 7 -5 11 -4 8 1 -3 5 0 15 7 21 11 10
13 9 12 -7 -1 -11 -5 -20 -10 -20 -4 0 -5 -6 -1 -12 4 -7 3 -10 -1 -5 -5 4
-16 0 -26 -9 -13 -12 -19 -12 -25 -3 -4 8 -3 10 4 5 8 -5 10 -1 5 9 -8 23 -22
-1 -16 -29 3 -12 1 -17 -4 -11 -4 6 -15 11 -23 13 -10 3 -9 -3 5 -19 l20 -22
-21 11 c-12 6 -25 8 -29 4 -5 -4 -5 2 -1 13 5 15 4 17 -5 8 -12 -12 -3 -37 11
-28 5 3 12 1 15 -5 4 -6 1 -9 -7 -8 -7 2 -12 -2 -11 -9 2 -7 -4 -10 -12 -7 -8
4 -12 11 -8 18 4 7 1 7 -9 -1 -8 -7 -19 -9 -23 -5 -5 4 -5 1 -1 -6 4 -7 12 -9
18 -6 7 5 8 2 4 -5 -5 -7 -15 -10 -23 -7 -8 3 -11 2 -8 -3 3 -6 -2 -14 -12
-19 -9 -5 -18 -17 -19 -26 -1 -9 2 -13 8 -10 6 4 8 2 4 -4 -3 -5 0 -13 6 -15
10 -4 10 -6 0 -6 -7 -1 -10 -6 -6 -13 4 -7 3 -8 -5 -4 -6 4 -9 12 -6 17 12 18
-14 9 -43 -16 -16 -13 -33 -21 -38 -17 -5 4 0 -3 10 -15 10 -13 23 -20 29 -16
6 3 7 1 3 -5 -5 -9 -13 -9 -26 -2 -25 13 -33 13 -23 -2 4 -7 9 -22 10 -33 3
-16 1 -17 -7 -5 -9 14 -14 7 -11 -13 1 -5 -3 -5 -9 -2 -7 4 -10 0 -8 -10 2
-12 -5 -19 -22 -21 -14 -2 -20 -1 -13 4 8 5 9 13 3 22 -8 13 -10 12 -11 -2 -1
-10 -2 -23 -3 -28 0 -6 -14 -19 -30 -29 -27 -18 -27 -19 -7 -26 11 -3 21 -11
21 -16 0 -5 -14 -3 -30 6 -40 21 -38 12 3 -14 17 -11 27 -21 21 -21 -6 0 -14
3 -18 7 -13 13 -35 11 -29 -3 3 -8 10 -11 16 -7 6 3 7 1 3 -5 -4 -7 -16 -12
-27 -12 -11 0 -17 -5 -14 -10 4 -6 10 -8 15 -5 5 3 12 0 16 -6 4 -8 3 -9 -4
-5 -16 9 -15 -7 0 -22 9 -9 9 -12 1 -12 -7 0 -14 8 -17 18 -3 9 -16 23 -28 31
-21 13 -22 13 -10 -2 10 -12 10 -17 1 -23 -9 -5 -7 -11 6 -21 14 -10 15 -13 4
-14 -8 0 -6 -3 5 -8 19 -7 19 -8 -2 -13 -12 -4 -20 -2 -16 3 3 5 0 9 -5 9 -6
0 -11 -9 -11 -21 0 -13 4 -18 13 -13 9 6 9 4 0 -7 -16 -16 -17 -33 -1 -23 7 4
8 3 4 -4 -4 -6 -14 -8 -23 -5 -10 4 -14 2 -10 -4 7 -12 -11 -12 -29 -1 -6 4
-11 1 -11 -7 0 -8 4 -12 9 -9 4 3 8 -3 8 -13 0 -15 2 -16 10 -3 5 8 10 10 10
4 0 -19 -12 -24 -34 -12 -11 6 -18 7 -14 3 4 -5 2 -15 -5 -24 -10 -14 -10 -14
4 -4 13 11 15 9 14 -9 -2 -22 -25 -39 -25 -19 0 6 -5 11 -12 11 -6 0 -3 -9 7
-20 10 -11 14 -20 9 -20 -5 0 -2 -5 6 -11 13 -9 13 -10 0 -6 -8 2 -13 11 -12
18 2 8 0 11 -4 7 -4 -4 -13 0 -21 10 -13 15 -13 15 -3 -6 8 -16 8 -27 1 -35
-6 -8 -6 -18 -1 -27 5 -9 5 -19 -1 -26 -7 -8 -6 -14 1 -19 16 -10 0 -26 -20
-20 -25 8 -46 -28 -26 -44 10 -9 15 -8 20 4 3 8 10 15 16 15 5 0 2 -9 -7 -20
-12 -14 -20 -16 -29 -9 -9 7 -15 5 -23 -9 -6 -11 -7 -22 -4 -26 14 -14 -12 -5
-31 11 -20 16 -20 16 0 -6 20 -21 52 -22 39 -1 -8 13 9 20 25 9 11 -6 12 -9 2
-9 -7 0 -10 -5 -7 -10 4 -6 1 -9 -7 -8 -7 2 -12 -5 -12 -14 1 -14 -2 -15 -17
-8 -12 7 -20 7 -24 0 -4 -6 -11 -7 -17 -4 -6 4 -8 2 -4 -4 3 -6 15 -9 26 -7
11 2 23 -1 26 -7 4 -6 3 -8 -3 -5 -6 4 -19 -1 -29 -9 -10 -9 -13 -13 -6 -9 18
9 15 -2 -8 -25 -12 -12 -18 -25 -15 -30 3 -4 -3 -10 -12 -12 -14 -3 -13 -5 5
-10 13 -4 21 -4 18 -1 -3 3 2 12 12 19 10 8 12 13 5 14 -17 0 -17 17 0 17 7 0
13 -11 13 -23 0 -13 -2 -22 -4 -20 -2 2 -15 -7 -29 -20 -15 -14 -32 -23 -39
-20 -9 4 -12 -133 -12 -610 0 -338 4 -614 8 -614 5 0 12 5 16 12 4 6 3 8 -3 5
-5 -3 -10 0 -10 8 0 10 4 12 12 5 7 -5 15 -7 18 -4 4 4 1 -5 -6 -19 -6 -14
-15 -23 -19 -21 -3 2 -10 -1 -14 -7 -5 -8 -3 -9 6 -4 10 6 12 4 7 -8 -7 -20 9
-32 26 -19 7 6 20 6 32 1 18 -9 18 -9 -3 -5 -15 3 -22 -1 -22 -11 0 -8 4 -11
10 -8 5 3 7 0 4 -9 -3 -8 -13 -12 -22 -9 -11 3 -13 2 -6 -4 10 -8 20 -27 23
-48 1 -5 9 -20 17 -32 8 -14 10 -23 4 -23 -7 0 -6 -6 2 -14 9 -10 15 -11 20
-2 4 6 8 -1 8 -17 0 -25 3 -27 23 -22 21 7 21 6 3 -7 -15 -12 -17 -19 -8 -33
8 -15 6 -22 -6 -33 -15 -11 -14 -12 6 -2 25 12 27 21 11 37 -8 8 -7 13 2 18 7
5 10 4 5 -3 -3 -6 2 -15 11 -21 10 -6 14 -11 8 -11 -5 0 -3 -5 5 -11 13 -9 12
-10 -3 -5 -11 3 -17 0 -17 -10 0 -11 6 -14 16 -10 8 3 12 2 9 -4 -3 -6 0 -10
7 -11 7 0 -1 -7 -19 -15 -22 -9 -31 -19 -27 -29 4 -8 8 -15 11 -15 3 0 3 7 -1
15 -3 8 0 15 7 16 7 0 23 2 37 4 14 2 19 1 12 -1 -6 -3 -10 -10 -7 -15 4 -5
-1 -6 -10 -2 -15 5 -15 3 -4 -15 7 -11 16 -19 20 -16 4 2 12 -4 18 -13 6 -10
11 -12 11 -5 0 6 5 12 11 12 8 0 7 -6 -2 -17 -11 -13 -11 -17 -1 -20 6 -3 12
-10 12 -16 -1 -7 -10 -1 -22 13 -12 15 -19 18 -15 8 3 -9 2 -19 -4 -22 -5 -2
-4 -3 3 -2 23 5 43 -24 31 -43 -9 -14 -7 -21 7 -31 10 -7 16 -20 13 -29 -4
-14 -3 -14 5 -1 6 8 8 19 5 25 -4 5 -3 7 2 3 4 -4 13 -3 20 2 8 7 12 5 12 -5
0 -8 -4 -12 -9 -9 -4 3 -8 2 -9 -3 0 -4 -2 -16 -4 -25 -3 -14 1 -15 23 -7 l27
9 -25 -20 c-21 -16 -22 -21 -10 -29 8 -5 18 -7 22 -5 4 3 8 -2 8 -11 0 -9 -4
-14 -9 -11 -11 7 -8 -21 4 -31 4 -4 5 -3 2 3 -4 7 -1 17 7 23 10 9 15 8 20 -4
3 -9 10 -13 16 -10 6 4 7 -1 3 -11 -5 -13 -3 -15 7 -9 9 6 11 4 6 -4 -5 -8 0
-14 15 -18 21 -6 21 -7 4 -13 -10 -3 -19 -14 -21 -24 -1 -10 0 -15 3 -12 3 3
15 0 27 -6 11 -7 25 -12 30 -13 14 0 19 -22 7 -30 -7 -4 -9 1 -5 12 4 14 3 15
-4 4 -7 -9 -12 -10 -16 -2 -4 6 -15 11 -24 10 -13 0 -11 -3 5 -9 12 -5 28 -18
35 -30 7 -11 17 -20 22 -20 4 0 2 7 -5 17 -13 15 -12 15 8 2 13 -8 24 -17 24
-21 5 -27 3 -34 -11 -40 -12 -5 -12 -7 3 -7 10 -1 20 6 24 14 5 14 7 14 24 0
20 -19 23 -61 3 -44 -7 6 -10 17 -7 25 3 8 0 14 -5 14 -6 0 -10 -14 -10 -31 1
-20 4 -26 9 -17 8 12 13 4 10 -14 0 -4 5 -5 13 -2 7 3 19 -3 27 -12 12 -15 12
-16 -8 -10 -12 4 -24 2 -28 -3 -4 -7 1 -8 11 -4 12 4 15 3 10 -5 -5 -8 -2 -10
8 -6 9 3 16 2 16 -2 0 -5 9 -20 19 -33 l18 -23 -2 23 c-1 13 -8 23 -14 22 -6
-2 -11 1 -11 6 0 6 9 9 19 8 11 0 17 -5 14 -11 -4 -5 1 -7 10 -3 9 3 16 3 15
-1 -3 -15 15 -42 27 -42 8 0 17 -4 20 -10 4 -7 -3 -7 -19 0 -36 13 -33 -2 3
-18 16 -7 31 -21 34 -31 2 -10 10 -18 18 -19 37 -3 53 -10 60 -30 5 -12 4 -24
-1 -27 -6 -4 -10 -14 -9 -23 0 -14 2 -14 6 -2 6 16 23 30 36 30 5 0 1 -7 -7
-16 -9 -8 -16 -21 -16 -27 0 -7 4 -7 9 2 13 21 39 22 36 2 -2 -18 15 -51 28
-51 4 0 5 4 2 10 -3 5 -1 10 4 10 6 0 12 -4 12 -10 1 -5 2 -16 3 -22 1 -8 13
-12 30 -11 24 2 26 0 15 -13 -6 -8 -9 -17 -5 -21 3 -3 6 -1 6 5 0 7 7 12 16
12 8 0 13 4 10 8 -3 5 1 9 9 9 8 0 12 -4 10 -8 -3 -3 2 -12 10 -19 8 -7 15
-22 15 -34 0 -17 2 -18 9 -6 6 8 8 17 6 20 -2 4 2 7 10 7 8 0 11 -5 8 -10 -4
-6 1 -8 11 -4 11 4 15 3 11 -4 -4 -6 -13 -8 -20 -5 -10 3 -13 -4 -13 -27 1
-18 3 -26 5 -19 3 6 12 12 21 12 8 0 25 8 36 17 20 17 20 17 7 0 -9 -11 -10
-17 -2 -17 6 0 11 -5 11 -11 0 -8 -4 -8 -14 0 -11 9 -16 9 -22 0 -4 -7 -3 -9
4 -5 6 3 18 -4 26 -16 9 -12 16 -18 16 -13 0 5 7 -1 16 -13 8 -12 23 -21 32
-21 16 1 16 2 0 6 -16 4 -16 6 -2 29 13 19 20 22 30 13 8 -6 14 -16 14 -22 0
-6 -6 -3 -13 7 -12 16 -15 17 -20 4 -3 -10 3 -19 19 -27 18 -8 24 -8 24 2 0 8
3 8 9 -2 7 -11 9 -11 14 0 2 8 4 2 3 -13 -1 -17 -7 -28 -16 -29 -13 0 -13 -1
0 -6 8 -4 21 -13 28 -22 11 -14 11 -13 2 7 -7 14 -7 22 -1 22 6 0 8 8 5 18 -5
14 -4 14 4 2 6 -8 8 -18 6 -22 -3 -4 2 -8 11 -8 9 0 14 4 10 9 -3 5 -1 12 4
15 13 9 7 -19 -9 -40 -12 -16 -12 -17 0 -6 21 18 29 15 25 -9 -3 -16 -1 -18 9
-10 18 15 28 1 14 -18 -10 -13 -10 -14 2 -4 22 20 21 42 -2 38 -12 -3 -18 -1
-14 2 16 16 37 9 51 -16 7 -15 21 -28 29 -28 8 0 13 4 10 8 -2 4 5 13 17 19
12 7 19 8 15 2 -3 -5 0 -15 8 -21 11 -9 15 -9 19 1 4 9 6 10 6 1 1 -7 8 -10
19 -7 10 4 13 2 7 -3 -5 -4 -11 -19 -12 -33 l-3 -25 15 25 c9 15 14 19 15 10
0 -13 1 -13 11 0 9 13 10 13 6 0 -2 -8 -10 -14 -16 -13 -6 2 -11 -2 -11 -7 0
-13 10 -12 39 4 15 8 20 16 12 20 -6 4 -11 12 -11 19 0 6 6 3 13 -8 9 -11 19
-15 28 -11 8 4 6 1 -4 -7 -15 -12 -15 -15 -3 -20 9 -4 18 -2 21 3 4 6 12 10
18 9 9 0 8 -2 -1 -6 -6 -2 -10 -9 -7 -13 5 -8 -2 -8 -40 0 -20 5 -35 0 -35
-11 0 -8 4 -8 14 0 10 9 16 9 21 1 4 -6 12 -9 18 -7 7 2 20 0 29 -4 11 -6 19
-5 24 3 4 7 3 8 -4 4 -7 -4 -12 -2 -12 3 0 15 13 14 29 -1 11 -10 14 -10 18
-1 4 10 8 9 19 -1 8 -8 14 -16 14 -19 0 -8 -35 -4 -47 6 -17 13 -16 -1 1 -18
10 -11 16 -11 26 -2 10 10 12 8 7 -5 -3 -10 -1 -20 5 -24 7 -5 8 -2 3 6 -6 9
-2 10 16 5 23 -7 24 -7 4 9 -23 18 -13 21 16 5 11 -6 28 -12 37 -14 9 -2 24
-5 32 -7 8 -1 15 3 16 10 1 6 3 15 4 20 1 4 2 11 1 15 -1 5 3 6 9 2 8 -5 7
-11 -1 -21 -9 -11 -9 -14 1 -14 9 0 7 -8 -6 -22 -19 -23 -19 -23 2 -6 25 21
41 24 25 4 -8 -10 -9 -16 -1 -21 6 -4 9 -1 8 6 -2 6 3 14 11 17 10 3 11 0 5
-9 -6 -11 -5 -12 8 -2 17 14 29 8 22 -12 -3 -7 0 -16 7 -21 8 -4 10 -3 5 4 -4
6 -2 21 4 32 9 17 8 19 -7 14 -15 -5 -15 -3 1 7 16 9 21 9 24 0 3 -9 8 -9 20
1 10 8 13 9 9 1 -4 -6 -1 -13 5 -16 10 -3 10 -7 0 -20 -12 -15 -7 -16 26 -8 1
1 -2 10 -8 20 -7 14 -7 22 0 26 6 4 10 3 9 -2 -5 -26 2 -34 24 -27 l22 7 -20
-19 c-12 -11 -15 -15 -8 -10 7 4 19 6 27 3 8 -3 20 1 26 9 8 9 9 14 2 14 -6 0
-13 -5 -15 -10 -3 -6 -4 -5 -3 2 1 7 11 15 20 16 14 3 16 -1 12 -16 -4 -11 -2
-23 4 -27 6 -4 9 -3 8 2 -2 4 2 8 7 8 6 0 9 -6 9 -12 -1 -7 2 -10 7 -8 4 3 6
19 4 35 -2 16 2 33 8 36 7 4 9 4 5 -1 -5 -5 1 -15 13 -23 11 -8 18 -20 15 -28
-3 -7 0 -16 6 -20 6 -4 8 -3 5 3 -10 15 18 24 32 10 8 -8 11 -7 11 3 0 7 3 10
7 7 3 -4 13 -1 20 5 12 10 14 8 11 -7 -1 -10 3 -20 10 -22 9 -4 11 6 8 34 -3
21 -2 30 0 20 3 -9 10 -14 16 -11 7 4 8 2 4 -4 -4 -7 -2 -12 5 -12 8 0 7 -5
-2 -17 -13 -16 -12 -17 3 -4 10 7 15 17 12 22 -3 5 2 6 11 3 11 -5 13 -10 5
-19 -8 -10 -7 -15 2 -21 7 -4 10 -4 6 1 -4 4 -3 14 3 21 7 8 7 14 -1 19 -5 3
-10 11 -10 16 0 6 7 3 16 -6 9 -8 13 -23 10 -32 -5 -13 -4 -14 9 -3 14 12 19
7 16 -13 -1 -5 3 -6 9 -2 6 4 4 15 -6 31 -9 13 -14 27 -10 31 3 3 6 1 6 -6 0
-7 5 -9 12 -5 6 4 8 3 5 -3 -3 -5 3 -17 14 -26 10 -9 19 -13 19 -7 0 5 -5 12
-10 15 -13 8 -3 25 13 25 8 0 7 -3 -2 -9 -11 -7 -9 -10 8 -16 12 -4 19 -11 15
-18 -4 -7 -3 -8 1 -4 14 12 15 38 2 30 -8 -5 -8 -2 0 9 7 8 9 19 5 23 -4 5 -1
5 6 1 7 -4 9 -12 6 -18 -5 -8 -1 -9 11 -4 14 5 16 4 6 -8 -10 -11 -6 -13 19
-11 17 1 34 6 38 10 4 5 0 5 -8 0 -12 -6 -13 -5 -3 5 10 11 9 16 -5 27 -15 13
-15 13 5 3 13 -6 23 -7 23 -3 0 4 5 2 11 -4 12 -12 42 -6 34 6 -2 4 2 8 10 8
10 0 12 -4 5 -12 -5 -7 -7 -15 -4 -18 4 -3 -9 -5 -29 -3 -29 3 -34 1 -29 -12
4 -11 7 -12 10 -3 3 8 8 7 18 -6 13 -17 14 -17 8 1 -6 16 -4 17 14 7 18 -10
20 -9 17 8 -2 11 3 22 10 25 10 3 12 -2 9 -22 -5 -26 -4 -26 10 -7 8 11 12 23
10 27 -3 4 0 16 6 25 10 16 11 16 6 1 -7 -24 18 -42 34 -23 8 10 17 12 29 6
12 -8 19 -3 32 21 13 25 17 27 22 14 4 -9 3 -15 -1 -12 -4 2 -8 -5 -9 -17 0
-12 1 -16 4 -9 4 10 8 10 19 1 10 -8 14 -8 14 0 0 6 -4 11 -8 11 -4 0 -8 11
-8 25 0 17 3 22 10 15 14 -14 29 -13 20 2 -5 7 -3 8 6 3 9 -6 12 -4 8 6 -4 10
2 14 19 14 24 0 24 0 4 -14 -26 -16 -27 -31 -3 -31 14 0 15 2 2 10 -13 8 -12
10 5 11 11 1 23 1 27 0 4 0 5 6 2 14 -4 11 -2 13 9 9 8 -3 18 0 23 7 5 8 3 10
-5 4 -10 -6 -11 -3 -2 14 13 24 23 28 15 6 -10 -24 40 -23 67 1 9 8 19 11 24
7 4 -5 4 -2 0 6 -6 11 -4 13 9 8 9 -4 15 -3 12 1 -5 9 10 37 21 38 4 0 16 4
26 9 15 6 16 10 5 16 -10 7 -10 9 0 9 6 0 12 5 12 11 0 5 -6 7 -12 3 -7 -4
-10 -4 -6 1 4 4 0 14 -10 22 -15 13 -15 13 6 3 12 -6 22 -8 22 -4 0 4 10 -1
22 -12 16 -13 19 -14 10 -2 -15 19 -4 30 32 32 14 1 21 8 22 22 1 12 4 27 8
33 4 7 2 19 -6 28 -7 9 -8 14 -2 10 7 -4 17 0 24 8 7 8 16 12 21 9 13 -8 11
10 -3 24 -7 7 -10 12 -7 13 2 0 12 2 22 4 14 3 16 0 8 -9 -8 -10 -5 -18 11
-32 13 -12 18 -13 13 -4 -14 23 -15 40 -2 40 7 1 1 7 -13 16 l-25 14 25 -2
c14 -2 28 -7 31 -11 3 -5 9 -2 12 6 4 11 1 15 -12 12 -10 -2 -18 2 -18 9 0 7
12 12 26 11 19 0 26 5 26 20 0 11 5 19 11 18 6 -1 10 9 8 25 -4 36 13 57 34
40 13 -11 14 -11 8 0 -5 8 -22 23 -40 34 -27 17 -28 19 -6 12 23 -6 24 -6 10
12 -14 18 -14 18 4 4 18 -14 18 -13 12 8 -5 15 -3 22 5 22 7 0 9 3 6 7 -4 3
-2 12 4 20 9 10 15 11 26 1 11 -9 13 -8 11 3 -2 8 3 13 10 11 8 -1 11 2 7 8
-5 8 -11 7 -21 -1 -11 -9 -14 -9 -14 1 0 9 -8 7 -22 -6 -23 -19 -23 -19 -5 2
9 11 14 25 10 30 -4 5 -2 4 6 -3 10 -9 18 -9 32 0 17 10 16 12 -7 34 -14 13
-20 23 -14 23 6 0 9 4 6 8 -2 4 4 8 14 8 14 0 16 -4 10 -17 -5 -9 -6 -19 -3
-23 10 -9 33 -7 33 4 0 5 -7 7 -15 4 -11 -5 -13 -2 -9 10 3 9 9 14 13 11 4 -2
8 2 8 10 0 8 -4 12 -8 10 -4 -3 -6 6 -5 20 1 27 11 33 19 13 3 -7 6 -8 6 -3 0
6 -4 17 -10 25 -8 11 -12 12 -16 3 -5 -15 -23 -18 -23 -5 0 5 11 14 25 20 16
7 23 17 19 27 -3 8 -11 12 -16 9 -6 -4 -5 -10 3 -15 10 -6 10 -9 2 -9 -16 0
-26 17 -13 25 6 4 7 11 4 17 -5 7 -2 8 6 3 10 -6 12 -4 7 9 -5 11 -3 15 4 10
7 -4 10 -1 7 7 -3 8 -13 13 -23 12 -12 -1 -14 2 -6 10 7 7 16 6 30 -7 11 -10
26 -16 33 -13 10 4 9 6 -2 7 -19 1 -53 47 -40 55 5 3 7 13 4 23 -5 14 -4 14 4
2 6 -8 8 -18 5 -24 -3 -5 -1 -6 6 -2 6 4 9 12 6 17 -4 5 1 9 10 9 9 0 14 -4
10 -9 -3 -5 -1 -12 4 -16 9 -5 9 7 0 40 -4 17 13 45 28 45 8 0 11 -4 8 -10 -3
-5 0 -10 7 -10 9 0 9 -3 -2 -10 -12 -7 -11 -9 6 -8 20 2 20 4 6 28 -17 30 -57
34 -57 7 0 -20 -9 -22 -33 -8 -9 6 -12 11 -6 11 5 0 15 -5 22 -12 16 -16 15 3
-2 24 -7 10 -17 14 -21 10 -5 -4 -5 -1 -1 6 4 7 12 10 17 7 5 -4 19 -8 31 -10
l23 -4 -24 18 c-18 14 -21 20 -11 26 9 5 11 4 6 -3 -4 -7 -3 -12 3 -12 6 0 17
12 26 28 13 22 15 23 10 5 -4 -14 -2 -23 5 -23 7 0 9 -8 5 -21 -6 -18 -5 -19
13 -10 15 8 23 8 28 -1 4 -7 3 -8 -4 -4 -7 4 -12 2 -12 -4 0 -6 -4 -8 -10 -5
-5 3 -10 1 -10 -4 0 -6 5 -11 11 -11 5 0 7 -4 4 -10 -3 -5 -2 -10 4 -10 5 0
11 3 14 8 2 4 2 2 1 -5 -2 -6 4 -17 12 -24 12 -10 12 -13 -3 -24 -10 -7 -22
-11 -28 -7 -5 3 -1 -5 10 -17 11 -13 18 -25 15 -26 -3 -2 -2 -7 2 -11 4 -4 10
1 14 10 3 9 10 16 15 16 5 0 3 -10 -4 -22 -18 -30 -16 -70 3 -75 9 -3 11 -1 5
4 -13 10 -13 48 -1 60 5 4 6 3 2 -4 -3 -6 -2 -14 4 -18 6 -4 8 -11 4 -16 -3
-5 0 -16 6 -24 7 -8 9 -15 5 -15 -4 0 -2 -7 5 -15 7 -9 20 -13 29 -10 11 4 10
1 -4 -13 -11 -10 -27 -17 -35 -14 -8 2 -5 -3 8 -12 12 -10 19 -23 16 -29 -4
-7 -4 -9 1 -5 4 4 14 3 22 -3 10 -9 13 -8 13 2 1 9 4 8 11 -4 6 -10 15 -14 22
-10 7 4 6 0 -2 -10 -12 -16 -8 -22 12 -18 5 1 6 -3 2 -9 -3 -5 -1 -19 5 -30
10 -18 14 -19 28 -8 15 12 16 11 3 -4 -10 -14 -10 -18 -1 -18 7 0 10 -7 6 -15
-17 -42 -16 -47 3 -20 11 17 21 25 21 19 0 -6 -3 -14 -7 -18 -4 -3 -8 -14 -9
-24 -3 -16 -2 -16 10 1 16 21 23 22 23 2 0 -8 -4 -12 -9 -9 -4 3 -8 1 -8 -5 0
-5 -8 -11 -17 -13 -15 -3 -14 -5 5 -10 14 -4 20 -2 16 4 -4 6 -1 8 7 6 8 -3
13 -10 12 -15 -1 -5 9 -22 22 -37 14 -16 23 -32 20 -36 -2 -4 5 -7 18 -6 17 1
21 -4 19 -19 -2 -16 -1 -17 7 -5 9 12 11 12 17 -3 3 -9 13 -17 21 -17 13 0 13
-2 2 -17 -13 -16 -12 -17 4 -4 17 14 17 15 -7 35 -20 16 -23 25 -16 36 9 12
10 12 8 -5 -2 -12 2 -19 10 -18 6 2 12 -2 12 -8 0 -5 4 -8 9 -5 5 4 8 -5 6
-19 -1 -14 2 -28 7 -31 4 -3 6 -9 3 -14 -3 -5 0 -12 6 -16 7 -4 9 -3 5 4 -3 6
-2 13 4 17 5 3 10 1 10 -4 0 -6 12 -11 26 -11 16 0 23 4 18 12 -4 7 -3 8 5 4
9 -6 9 -11 0 -22 -6 -8 -9 -17 -5 -21 3 -3 6 -1 6 6 0 9 5 9 20 1 11 -6 18
-16 14 -22 -4 -7 -9 -6 -15 3 -7 11 -9 11 -9 1 0 -7 -5 -10 -12 -6 -6 4 -8 3
-5 -3 8 -12 53 -11 64 1 5 5 2 6 -7 1 -13 -8 -13 -6 -1 8 17 22 34 12 21 -13
-13 -25 -12 -40 1 -17 6 9 14 15 20 12 5 -4 9 -1 9 4 0 6 5 11 11 11 5 0 8 -4
5 -9 -9 -13 27 -39 51 -36 12 1 19 -3 17 -10 -3 -6 -11 -12 -19 -12 -8 0 -12
3 -10 7 2 4 -2 7 -9 7 -7 0 -13 -6 -13 -13 0 -6 7 -11 16 -9 9 1 21 -2 28 -7
7 -6 14 -5 19 3 5 8 3 9 -6 4 -9 -6 -11 -4 -6 4 6 9 13 8 28 -6 11 -10 25 -18
31 -19 40 -4 41 -5 17 -19 l-25 -15 27 6 c21 5 26 2 25 -13 -2 -14 5 -18 28
-18 19 0 29 -5 28 -12 -3 -15 13 -17 22 -3 8 12 46 -20 39 -34 -3 -6 1 -3 9 7
16 19 32 24 21 5 -5 -7 -3 -8 6 -3 7 5 25 9 39 10 17 1 25 7 23 16 -2 8 0 10
5 6 4 -5 8 -14 8 -20 0 -7 9 -13 20 -15 15 -2 16 -1 7 6 -11 7 -11 10 2 15 9
4 15 1 13 -6 -1 -7 5 -12 13 -12 8 0 14 6 12 13 -1 8 2 11 8 7 6 -3 8 -10 5
-15 -3 -5 -1 -11 5 -15 5 -3 10 0 10 7 0 8 5 6 11 -5 6 -9 15 -15 20 -11 6 3
5 12 -3 22 -12 15 -11 16 4 3 10 -7 16 -17 13 -21 -3 -5 1 -15 9 -23 8 -8 13
-17 11 -19 -3 -3 1 -5 9 -5 13 0 13 3 0 21 -8 11 -14 25 -14 31 0 5 5 2 11 -8
9 -15 13 -16 27 -5 15 12 16 11 3 -4 -12 -16 -11 -18 2 -18 8 0 17 5 19 12 3
7 9 8 19 3 23 -15 41 -15 35 0 -3 8 -1 17 5 20 5 4 9 3 8 -2 -3 -18 2 -33 11
-33 5 0 7 8 3 18 -4 11 0 10 11 -5 10 -13 22 -23 28 -23 6 0 6 6 -2 16 -11 12
-11 15 1 12 8 -2 13 3 11 10 -1 8 2 11 8 7 8 -5 7 -11 -1 -21 -9 -12 -8 -14 7
-11 11 1 26 7 34 12 12 7 13 6 4 -6 -6 -8 -14 -23 -18 -33 -5 -16 -4 -17 9 -6
14 12 19 7 16 -13 -1 -5 3 -6 9 -2 6 3 8 10 6 13 -2 4 9 15 25 25 17 9 28 13
25 8 -3 -5 1 -11 9 -15 12 -4 14 64 14 524 0 450 -2 528 -14 524 -7 -3 -13
-11 -11 -17 1 -7 1 -9 -1 -4 -3 4 -9 5 -13 2 -5 -3 -12 0 -16 6 -5 8 -2 10 7
5 8 -4 5 0 -6 9 -11 9 -19 21 -17 26 1 6 -2 8 -8 4 -6 -3 -8 -11 -5 -16 4 -5
1 -9 -4 -9 -6 0 -11 6 -11 13 0 7 -3 8 -8 2 -4 -5 -17 -10 -28 -11 -12 -1 -34
-4 -48 -8 -24 -6 -26 -5 -14 8 7 7 16 12 20 9 5 -2 16 0 25 6 14 8 9 9 -20 6
-27 -4 -36 -2 -31 7 4 7 3 8 -5 4 -6 -4 -9 -11 -7 -15 3 -4 1 -13 -5 -21 -6
-11 -9 -12 -9 -2 0 7 -5 10 -12 6 -7 -4 -8 -3 -4 5 4 6 12 8 18 5 7 -4 8 -2 4
4 -9 15 -52 8 -48 -8 1 -6 -2 -9 -7 -6 -9 6 -6 50 4 66 2 4 -2 7 -9 7 -7 0
-13 -7 -12 -16 1 -8 -8 -16 -19 -18 -19 -3 -19 -3 -1 5 13 6 16 11 8 15 -6 4
-9 16 -7 27 5 24 -10 27 -19 4 -3 -8 -2 -12 4 -9 6 3 7 -1 3 -10 -4 -12 -8
-13 -13 -5 -6 9 -9 9 -12 -1 -3 -9 -6 -8 -11 5 -4 9 -3 15 2 12 5 -3 12 1 15
10 8 21 8 24 -5 24 -5 0 -7 -4 -4 -10 3 -5 1 -10 -4 -10 -15 0 -14 27 2 33 7
4 6 6 -5 6 -9 1 -19 -7 -22 -17 -3 -9 -4 -3 -2 15 2 28 0 31 -15 22 -24 -12
-39 -11 -17 2 9 5 15 16 12 24 -4 8 -10 12 -15 9 -5 -3 -9 -1 -9 4 0 17 13 21
34 11 21 -10 21 -10 1 6 -11 9 -19 23 -17 32 2 10 -2 14 -11 10 -7 -3 -20 -1
-28 4 -10 6 -10 9 -1 9 6 0 12 5 12 11 0 5 -4 8 -9 5 -5 -3 -7 10 -5 29 2 21
-1 33 -7 30 -5 -4 -8 -1 -7 7 2 7 -5 12 -16 11 -12 -1 -15 2 -8 9 13 13 65
-20 55 -36 -13 -20 -11 -34 3 -40 12 -4 13 -2 5 12 -7 12 -5 22 7 36 9 11 12
17 6 13 -6 -4 -19 2 -29 13 -20 22 -7 28 13 8 7 -7 5 2 -4 21 -14 28 -14 35
-3 43 11 8 10 9 -4 4 -10 -3 -15 -2 -12 3 3 5 1 12 -5 16 -5 3 -10 16 -10 28
1 21 1 21 13 -3 7 -14 18 -26 26 -28 11 -2 10 3 -4 24 -14 22 -15 28 -4 36 11
7 10 8 -4 4 -10 -3 -15 -2 -12 3 3 5 1 12 -5 16 -19 12 -10 45 15 55 31 12 33
20 3 13 -18 -4 -20 -3 -8 6 16 11 24 81 9 81 -4 0 -6 -9 -4 -20 2 -11 0 -18
-6 -15 -5 4 -9 1 -9 -4 0 -6 5 -11 10 -11 6 0 10 -5 10 -11 0 -5 -4 -8 -9 -4
-5 3 -12 1 -16 -5 -3 -5 -12 -10 -18 -10 -7 0 -6 4 3 10 8 5 15 21 16 37 1 15
2 28 4 28 1 0 4 12 6 28 1 15 -1 25 -5 22 -5 -2 -8 11 -6 30 1 19 -3 35 -8 35
-6 0 -7 3 -4 6 4 4 13 1 22 -6 8 -7 15 -8 15 -3 0 16 -22 32 -39 26 -14 -4
-14 -3 -1 6 8 6 15 14 16 18 2 22 17 42 28 36 6 -3 6 -1 -1 8 -15 15 -18 43
-4 35 5 -4 7 8 4 25 -3 19 -1 29 6 25 5 -4 12 -2 16 3 3 6 -3 8 -15 6 -25 -5
-26 13 -2 31 16 12 16 12 -2 11 -10 -1 -21 5 -23 13 -4 13 -3 13 7 0 10 -13
11 -13 6 3 -4 11 0 17 12 18 14 0 14 2 -2 8 -14 5 -16 10 -7 15 7 5 9 12 3 19
-10 14 -10 27 1 44 5 7 4 20 -1 29 -8 15 -10 15 -16 -1 -3 -9 -4 -20 -1 -25 3
-4 -1 -10 -9 -13 -11 -4 -12 2 -4 34 6 21 14 37 18 34 4 -3 14 3 21 13 12 15
12 16 -2 4 -14 -10 -18 -10 -23 4 -9 23 -8 26 7 18 7 -5 6 0 -3 11 -14 17 -13
18 2 12 15 -5 16 -3 6 18 -6 14 -16 25 -21 25 -5 0 -3 -8 4 -17 8 -10 9 -14 2
-10 -8 5 -11 1 -8 -13 2 -13 0 -18 -7 -14 -7 4 -7 0 1 -13 11 -21 6 -33 -13
-33 -6 0 -4 5 4 10 8 5 10 10 5 10 -6 0 -11 18 -11 40 -1 22 3 40 7 40 5 0 9
5 9 11 0 5 -5 7 -12 3 -7 -5 -8 -3 -2 7 9 15 15 35 16 59 0 8 6 21 12 29 8 11
8 13 -1 8 -6 -4 -13 -4 -16 0 -2 5 -2 3 -1 -4 2 -7 0 -14 -4 -17 -4 -3 -8 4
-9 14 -1 11 2 22 8 25 12 8 12 25 -2 25 -5 0 -7 -6 -3 -12 4 -7 -1 -5 -11 4
-15 14 -16 20 -6 32 7 9 11 22 8 30 -4 9 1 17 11 19 15 4 15 5 1 6 -9 0 -20 9
-24 19 -5 14 -4 15 6 5 7 -7 18 -13 24 -13 5 0 4 4 -4 9 -11 7 -12 13 -3 24 9
11 9 14 -3 14 -8 0 -11 -5 -8 -11 3 -6 3 -8 -2 -4 -4 4 -15 2 -24 -5 -14 -10
-14 -10 -4 4 7 9 9 20 5 24 -4 5 -2 5 4 2 6 -4 20 0 30 8 18 13 18 14 -3 8
-13 -3 -23 -1 -24 3 0 5 -2 20 -5 34 -3 18 -2 21 5 10 5 -8 8 -17 5 -21 -2 -4
0 -10 5 -14 6 -3 8 3 6 15 -6 31 -16 42 -31 36 -8 -3 -14 0 -14 5 0 6 10 9 23
7 16 -3 23 0 23 12 0 9 -6 17 -13 17 -7 0 -10 -4 -8 -8 4 -6 -18 -5 -35 1 -3
1 -7 2 -10 2 -3 0 -6 8 -6 19 0 19 1 19 13 3 12 -16 13 -16 19 0 5 14 9 15 15
5 4 -8 11 -10 16 -6 11 11 -17 26 -36 19 -13 -5 -14 -3 -5 9 15 19 14 49 -3
49 -10 0 -11 5 -4 18 10 20 -3 52 -16 39 -4 -5 -1 -12 6 -16 8 -5 9 -11 3 -15
-17 -10 -25 27 -8 39 13 10 11 14 -13 28 -16 9 -31 14 -34 11 -3 -3 -3 4 0 15
3 12 9 23 13 26 5 3 6 -3 3 -13 -6 -24 42 -49 51 -26 3 8 2 13 -3 9 -11 -6
-41 4 -41 15 0 5 10 6 23 4 l22 -5 -22 10 c-13 6 -20 16 -17 24 5 14 -29 60
-40 52 -3 -3 -4 -2 -1 2 8 11 -16 33 -29 26 -6 -4 -5 1 3 10 13 17 26 15 26
-4 0 -5 3 -9 8 -9 4 0 7 2 7 5 0 3 0 9 0 14 0 15 -32 22 -45 11 -14 -11 -33 5
-21 17 3 4 6 1 6 -6 0 -7 5 -9 10 -6 6 4 8 11 5 16 -3 5 1 6 9 3 9 -3 16 -1
16 4 0 6 -14 9 -32 7 -18 -3 -28 -1 -21 3 15 10 10 45 -7 50 -8 3 -10 0 -5 -9
5 -8 4 -11 0 -6 -11 10 -14 48 -3 41 4 -3 8 0 8 6 0 6 5 8 12 4 7 -4 8 -3 4 5
-4 6 -12 9 -17 6 -5 -3 -6 0 -3 8 3 8 0 18 -5 22 -6 3 -9 11 -5 16 3 5 2 9 -3
8 -22 -4 -44 2 -39 10 3 5 16 7 29 5 12 -2 15 -1 7 2 -8 4 -18 12 -22 18 -6 8
-11 6 -19 -4 -9 -13 -10 -12 -5 3 3 9 9 24 12 32 4 9 -1 17 -10 21 -9 3 -16
10 -16 16 0 5 5 6 11 2 8 -4 8 0 0 15 -14 25 -23 28 -14 4 6 -16 4 -16 -9 -5
-9 7 -15 21 -13 32 3 13 -1 16 -16 13 -18 -5 -24 -16 -19 -38 1 -5 -2 -6 -6
-2 -13 12 -13 37 -1 37 7 0 4 5 -6 11 -9 6 -15 14 -12 20 6 9 -9 13 -30 9 -5
-1 -4 4 3 11 16 17 15 29 -2 29 -9 0 -12 7 -9 20 3 11 0 20 -6 20 -6 0 -10 5
-9 11 2 6 -4 14 -12 16 -13 4 -13 3 0 -7 13 -10 13 -11 0 -7 -8 2 -14 10 -12
17 2 7 -5 9 -20 5 -16 -4 -19 -3 -10 3 11 7 10 11 -4 16 -9 3 -14 9 -11 13 11
11 -41 43 -60 37 -12 -3 -10 -1 5 8 12 8 19 17 15 22 -4 4 1 4 12 1 20 -6 20
-6 1 6 -15 9 -21 9 -24 1 -2 -7 -9 -12 -15 -12 -5 0 -7 3 -4 7 4 3 2 12 -4 19
-7 8 -6 14 2 20 7 4 9 3 6 -2 -3 -6 4 -11 16 -11 20 -2 21 -1 4 11 -9 7 -28
12 -42 11 -13 -2 -24 0 -24 3 3 21 -3 32 -17 32 -9 0 -12 5 -8 12 5 8 14 3 29
-16 20 -25 35 -26 35 -2 0 6 -4 5 -9 -3 -7 -11 -10 -9 -16 8 -3 11 -11 21 -16
21 -6 0 -7 5 -3 12 4 6 3 8 -4 4 -6 -3 -14 -2 -17 4 -5 8 -12 7 -23 -2 -9 -8
-13 -8 -9 -1 9 14 -2 43 -15 43 -6 0 -4 -8 3 -17 10 -11 10 -14 2 -9 -8 4 -13
2 -13 -4 0 -6 -5 -8 -11 -4 -8 5 -8 9 1 14 9 6 9 9 -1 13 -10 4 -10 6 -1 6 17
1 15 18 -4 25 -8 3 -12 2 -9 -3 3 -5 0 -13 -6 -17 -8 -4 -9 -3 -5 4 4 7 2 12
-5 12 -8 0 -9 4 0 13 14 17 -5 38 -27 30 -10 -4 -13 -2 -8 5 5 8 1 10 -11 5
-16 -6 -16 -5 -5 10 12 14 11 16 -7 14 -15 -1 -20 -6 -16 -17 4 -11 2 -11 -8
2 -8 10 -18 14 -22 10 -4 -4 -2 3 4 16 13 24 26 31 18 8 -4 -10 0 -12 15 -8
19 5 20 5 2 16 -11 6 -23 11 -29 11 -5 1 -9 6 -7 13 3 16 -4 15 -27 -5 -11 -9
-17 -21 -14 -26 3 -6 1 -7 -5 -3 -9 5 -7 14 4 32 9 13 14 27 10 31 -3 3 -6 1
-6 -5 0 -18 -27 -14 -34 4 -4 9 -13 14 -22 10 -9 -3 -12 -2 -8 5 3 6 14 9 24
6 12 -3 17 0 14 7 -2 6 -13 12 -24 12 -10 0 -17 -3 -14 -7 2 -4 -2 -9 -10 -12
-10 -4 -12 1 -9 16 4 18 3 19 -6 7 -9 -13 -11 -13 -11 3 0 9 -4 17 -10 17 -6
0 -6 -9 1 -26 5 -15 8 -29 5 -31 -2 -2 -8 10 -14 26 -8 24 -15 29 -29 24 -15
-6 -16 -5 -3 9 8 9 18 12 21 6 3 -5 11 -2 18 6 9 11 9 16 0 22 -8 4 -9 3 -5
-4 10 -17 -9 -15 -23 1 -6 8 -7 18 -3 22 4 5 1 5 -6 1 -7 -4 -10 -11 -7 -16 3
-4 -2 -11 -11 -14 -12 -5 -15 -2 -10 9 4 11 2 14 -7 8 -21 -13 -36 -12 -30 3
3 8 -1 14 -8 15 -8 1 -3 5 11 9 24 8 24 8 3 9 -13 1 -23 7 -23 14 0 7 -3 8 -8
2 -10 -15 -32 -17 -46 -5 -7 5 -17 6 -21 2 -5 -4 -5 -1 -1 6 4 7 12 10 17 7 5
-4 9 -2 9 3 0 6 -7 13 -16 16 -8 3 -13 2 -10 -3 3 -5 -1 -11 -9 -14 -9 -4 -12
-1 -8 9 4 10 0 12 -13 7 -16 -6 -17 -5 -6 9 10 13 10 18 1 24 -7 4 -9 3 -6 -3
4 -7 -3 -10 -18 -9 -19 1 -24 5 -20 21 3 11 2 14 -1 6 -5 -10 -10 -8 -20 10
-7 13 -13 18 -14 11 0 -7 -4 -11 -9 -7 -5 3 -12 1 -16 -4 -3 -6 3 -8 15 -6 11
2 20 1 21 -3 0 -4 2 -15 4 -25 2 -9 -1 -15 -6 -11 -5 3 -7 10 -4 15 4 5 1 10
-4 10 -20 3 -26 5 -66 26 -46 25 -40 31 7 7 16 -9 27 -11 24 -5 -4 6 -3 11 3
11 5 0 9 9 8 20 -1 19 -12 18 -12 -3 0 -5 -6 -12 -14 -15 -8 -3 -11 -1 -8 4 8
14 -77 13 -85 0 -5 -8 -11 -7 -20 3 -7 8 -8 11 -2 8 15 -9 38 18 31 35 -3 8
-6 6 -6 -5 -1 -10 -5 -16 -11 -12 -5 3 -18 -3 -30 -15 -11 -11 -20 -16 -20
-12 0 5 9 17 20 27 11 10 20 23 19 29 0 6 -3 6 -6 -1 -2 -7 -9 -13 -14 -13 -6
0 -7 5 -3 12 4 6 3 8 -4 4 -6 -3 -13 -2 -17 4 -3 5 -12 10 -18 10 -7 0 -1 -9
12 -19 15 -11 20 -21 13 -25 -6 -3 -15 2 -21 11 -8 15 -13 16 -30 6 -12 -7
-24 -13 -28 -13 -5 0 0 5 10 11 9 6 14 15 11 21 -5 7 -2 8 7 3 12 -8 12 -6 0
8 -9 12 -21 15 -35 11 -19 -6 -20 -5 -6 11 13 17 13 18 0 10 -22 -14 -52 -17
-45 -5 4 6 3 10 -2 9 -21 -4 -24 2 -12 19 13 15 12 16 -3 3 -10 -7 -15 -17
-12 -22 3 -5 0 -9 -6 -9 -6 0 -8 -4 -5 -10 9 -15 27 -12 19 3 -5 9 -4 9 6 0 8
-7 10 -16 6 -20 -9 -9 -39 9 -37 22 2 5 -7 13 -19 17 -13 5 -19 13 -15 20 4 7
-6 0 -21 -17 -15 -16 -25 -22 -21 -12 15 38 19 52 10 42 -9 -11 -26 -16 -60
-19 -13 0 -23 -5 -23 -10 0 -5 -3 -7 -6 -4 -3 4 0 17 7 30 11 21 11 22 -4 9
-13 -10 -20 -11 -30 -2 -8 6 -18 7 -22 3 -5 -4 -5 1 -2 10 3 10 3 19 -1 22 -4
2 -9 -7 -10 -21 -1 -19 2 -24 13 -19 8 3 15 1 15 -4 0 -5 -18 -8 -39 -7 -22 1
-38 4 -36 7 1 3 -4 12 -13 19 -14 13 -15 12 -10 -7 4 -13 2 -20 -4 -16 -5 4
-8 16 -6 29 3 13 0 22 -9 22 -8 0 -11 -8 -8 -21 3 -12 2 -15 -1 -8 -3 6 -10
12 -15 12 -6 0 -5 -9 1 -22 10 -21 9 -21 -9 2 -18 23 -20 23 -27 7 -6 -17 -8
-16 -23 7 l-17 25 -32 -19 c-18 -11 -31 -15 -29 -8 1 6 -11 12 -28 13 -45 3
-47 4 -40 15 4 6 -1 7 -11 3 -13 -5 -15 -3 -9 8 8 12 6 12 -9 0 -14 -12 -19
-12 -25 -2 -6 10 -10 9 -14 -3 -9 -22 -28 -20 -21 2 4 10 2 13 -3 7 -12 -15
-56 -18 -47 -3 4 7 3 8 -5 4 -8 -5 -9 -12 -2 -19 7 -9 0 -12 -25 -13 -19 -1
-34 3 -34 8 0 5 5 6 12 2 7 -4 8 -3 4 4 -4 6 -14 8 -23 5 -12 -5 -14 -3 -8 7
5 9 4 11 -4 6 -9 -6 -9 -11 1 -23 9 -12 2 -10 -28 5 -30 15 -41 17 -41 7z
m187 -9 c0 -3 -4 -8 -10 -11 -5 -3 -10 -1 -10 4 0 6 5 11 10 11 6 0 10 -2 10
-4z m86 -8 c4 -7 3 -8 -4 -4 -7 4 -12 2 -12 -5 0 -7 -3 -10 -6 -6 -6 5 3 27
11 27 2 0 7 -5 11 -12z m-345 -21 c-13 -13 -26 -3 -16 12 3 6 11 8 17 5 6 -4
6 -10 -1 -17z m279 3 c0 -5 -2 -10 -4 -10 -3 0 -8 5 -11 10 -3 6 -1 10 4 10 6
0 11 -4 11 -10z m215 1 c3 -5 2 -12 -3 -15 -5 -3 -9 1 -9 9 0 17 3 19 12 6z
m-650 -21 c3 -5 2 -10 -4 -10 -5 0 -13 5 -16 10 -3 6 -2 10 4 10 5 0 13 -4 16
-10z m270 0 c3 -5 1 -10 -4 -10 -6 0 -11 5 -11 10 0 6 2 10 4 10 3 0 8 -4 11
-10z m-295 -18 c0 -5 -7 -9 -15 -9 -8 0 -12 4 -9 9 3 4 9 8 15 8 5 0 9 -4 9
-8z m1051 -44 c-10 -11 -11 -10 -5 5 4 12 2 16 -7 14 -8 -2 -11 -2 -6 0 4 3 4
10 1 16 -4 7 1 4 12 -5 15 -14 16 -20 5 -30z m-1191 6 c0 -8 -19 -13 -24 -6
-3 5 1 9 9 9 8 0 15 -2 15 -3z m1321 -11 c8 2 11 2 6 0 -4 -3 -5 -8 -3 -12 3
-4 -1 -8 -9 -8 -8 0 -15 4 -15 8 0 5 -6 7 -12 5 -7 -1 -10 -1 -5 1 4 3 4 10 0
16 -4 8 -1 7 9 -1 8 -7 22 -11 29 -9z m173 -91 c3 -5 -1 -9 -9 -9 -8 0 -12 4
-9 9 3 4 7 8 9 8 2 0 6 -4 9 -8z m-1834 -18 c0 -8 -19 -13 -24 -6 -3 5 1 9 9
9 8 0 15 -2 15 -3z m-230 -67 c0 -2 -8 -14 -19 -26 -17 -20 -19 -20 -25 -4 -4
10 -4 14 0 11 3 -4 13 -1 21 7 14 14 23 19 23 12z m2304 -35 c3 -5 -1 -9 -9
-9 -8 0 -12 4 -9 9 3 4 7 8 9 8 2 0 6 -4 9 -8z m52 -10 c0 -10 -6 -19 -13 -19
-7 0 -10 4 -7 9 3 4 -1 8 -8 9 -7 0 -4 4 7 9 11 5 20 9 20 9 1 1 1 -7 1 -17z
m-2412 -30 c2 -4 -4 -8 -14 -8 -10 0 -16 4 -14 8 3 4 9 8 14 8 5 0 11 -4 14
-8z m-176 -96 c-7 -8 -15 -12 -17 -11 -5 6 10 25 20 25 5 0 4 -6 -3 -14z
m2782 -6 c0 -5 -5 -10 -11 -10 -5 0 -7 5 -4 10 3 6 8 10 11 10 2 0 4 -4 4 -10z
m74 -39 c3 -5 -1 -14 -8 -20 -12 -10 -14 -9 -11 6 2 10 4 19 4 21 2 5 10 2 15
-7z m56 -75 c0 -2 -7 -7 -16 -10 -8 -3 -12 -2 -9 4 6 10 25 14 25 6z m45 -6
c3 -5 1 -10 -4 -10 -6 0 -11 5 -11 10 0 6 2 10 4 10 3 0 8 -4 11 -10z m99 -99
c3 -5 -1 -11 -9 -14 -9 -4 -12 -1 -8 9 6 16 10 17 17 5z m-3344 -38 c0 -3 -7
-3 -15 0 -8 4 -17 2 -20 -3 -4 -6 -14 -10 -23 -10 -12 1 -10 4 7 14 23 12 51
12 51 -1z m-94 -80 c-2 -10 -12 -18 -24 -19 -12 -1 -19 2 -16 7 2 4 11 6 20 2
8 -3 14 -2 13 3 -2 13 0 24 5 24 2 0 3 -8 2 -17z m-125 -152 c-7 -5 -11 -13
-7 -19 3 -6 2 -13 -2 -16 -5 -3 -8 5 -7 17 3 28 3 27 18 27 9 0 8 -3 -2 -9z
m-31 -21 c0 -5 -5 -10 -11 -10 -5 0 -7 5 -4 10 3 6 8 10 11 10 2 0 4 -4 4 -10z
m1917 -95 c0 -8 -4 -12 -9 -9 -5 3 -6 10 -3 15 9 13 12 11 12 -6z m1989 -4
c-3 -5 1 -14 9 -21 8 -7 13 -16 10 -20 -3 -5 4 -11 15 -15 22 -7 26 -20 10
-30 -5 -3 -10 1 -10 9 0 9 -4 17 -10 17 -5 1 -14 2 -19 3 -5 0 -13 5 -18 10
-4 5 -3 6 4 2 6 -3 14 -2 18 3 3 5 -2 14 -11 19 -14 8 -13 32 2 32 3 0 3 -4 0
-9z m-2130 -16 c-3 -8 2 -19 12 -23 20 -11 45 -4 36 9 -8 14 -26 11 -18 -3 4
-7 3 -9 -1 -5 -15 13 -14 34 1 34 8 0 14 -4 14 -9 0 -5 5 -6 10 -3 8 5 14 -11
12 -35 0 -3 12 -5 28 -5 15 0 26 3 23 8 -2 4 -12 7 -21 7 -11 0 -18 8 -19 23
-2 17 0 19 7 6 6 -10 19 -14 44 -11 22 3 33 8 29 15 -3 6 -1 7 5 3 8 -4 8 -15
2 -31 -14 -36 -3 -31 15 8 8 17 13 23 10 12 -5 -20 -5 -20 10 -1 9 12 15 15
15 7 0 -11 3 -11 17 0 11 10 14 10 9 2 -4 -7 -3 -13 1 -13 5 0 15 6 22 13 11
10 12 9 6 -1 -8 -16 25 -13 38 3 5 6 5 0 2 -12 -4 -14 -2 -23 5 -23 6 0 8 -5
4 -11 -4 -8 0 -8 15 0 20 11 26 8 21 -14 -1 -5 2 -7 6 -3 4 4 14 2 22 -5 12
-9 14 -9 9 0 -5 7 1 17 13 23 12 6 18 16 14 23 -4 7 2 4 14 -6 12 -11 18 -25
15 -35 -4 -9 -2 -13 4 -9 6 4 13 1 16 -5 3 -9 10 -7 23 6 11 11 12 15 3 8 -15
-11 -29 -7 -29 8 0 8 37 6 46 -2 3 -4 12 -4 20 -1 8 3 14 0 14 -5 0 -6 -10 -9
-22 -7 -17 4 -19 2 -10 -7 9 -9 20 -10 42 -1 16 6 28 7 27 3 -1 -4 0 -8 3 -7
3 0 15 -5 28 -12 19 -10 21 -15 11 -34 -11 -21 -10 -21 17 3 16 14 22 17 15 8
-10 -13 -10 -18 -2 -18 7 0 9 -5 5 -12 -4 -8 -3 -10 2 -5 5 5 9 13 9 19 0 6 8
12 18 14 9 1 15 -2 11 -7 -3 -5 0 -9 5 -9 6 0 11 -5 11 -11 0 -8 -5 -8 -15 1
-12 10 -15 9 -15 -4 0 -10 4 -15 9 -11 5 3 17 -5 25 -17 9 -12 16 -16 16 -9 0
9 7 11 21 8 16 -4 19 -2 15 11 -5 14 -3 14 8 -2 8 -10 20 -15 28 -11 7 3 5 0
-4 -7 -16 -13 -15 -16 7 -44 13 -16 24 -25 25 -20 0 5 9 1 19 -8 14 -13 21
-14 27 -5 5 8 3 10 -6 4 -9 -5 -11 -4 -6 4 11 17 26 4 20 -17 -5 -14 -2 -13
12 3 15 19 16 19 10 1 -7 -21 20 -70 34 -61 4 3 6 15 4 28 -4 22 -4 22 6 -1 5
-13 8 -28 4 -33 -11 -18 6 -29 27 -18 14 7 24 7 33 0 7 -6 15 -8 18 -6 3 3 5
-5 4 -17 -1 -18 4 -22 22 -21 13 2 21 -1 17 -7 -3 -6 -13 -10 -21 -10 -30 0
-12 -20 19 -21 30 -1 30 -2 7 -8 -22 -6 -23 -8 -7 -14 11 -4 24 -4 29 0 6 3 8
1 5 -4 -4 -6 0 -16 8 -23 8 -7 15 -17 15 -23 0 -6 -7 -1 -16 11 -8 12 -19 22
-25 22 -5 0 0 -9 11 -20 18 -18 24 -33 21 -52 0 -5 5 -7 12 -5 7 1 12 -7 11
-20 -1 -18 1 -20 17 -10 13 8 22 8 29 1 8 -8 7 -13 -5 -18 -11 -4 -14 -2 -9 7
4 6 3 8 -1 4 -5 -4 -10 -14 -11 -22 -2 -13 3 -13 34 0 31 13 34 13 18 1 -10
-8 -15 -19 -12 -25 4 -5 2 -12 -4 -16 -13 -8 -3 -25 13 -25 8 0 8 3 -1 9 -11
6 -10 10 4 15 14 5 15 9 5 15 -10 7 -10 9 2 14 19 7 17 -34 -3 -59 -8 -10 -10
-15 -5 -13 6 3 18 -2 27 -12 14 -15 14 -18 2 -23 -8 -3 -12 -2 -9 3 3 5 1 12
-5 16 -5 3 -10 1 -10 -4 0 -6 -7 -11 -15 -11 -8 0 -15 -4 -15 -10 0 -5 7 -7
15 -4 8 4 15 2 15 -3 0 -5 -9 -9 -20 -10 -18 -2 -26 13 -21 40 1 5 -3 6 -9 2
-6 -4 -8 -15 -5 -25 9 -27 -22 -33 -40 -7 -15 21 -15 21 -13 2 3 -21 -2 -25
-28 -25 -9 0 -12 5 -8 12 4 6 3 8 -4 4 -5 -3 -12 -3 -15 1 -2 5 -3 3 -1 -3 1
-6 -7 -19 -18 -29 -17 -14 -18 -19 -7 -26 10 -6 7 -8 -9 -6 -12 0 -22 6 -22
12 0 5 -5 3 -11 -5 -9 -13 -10 -13 -6 0 2 8 11 14 21 12 9 -2 16 2 16 8 0 6
-4 8 -10 5 -6 -3 -10 0 -11 7 0 10 -2 11 -6 0 -4 -10 -8 -10 -21 0 -15 11 -15
11 -4 -4 8 -10 9 -18 3 -22 -6 -4 -9 -12 -7 -19 1 -7 1 -8 -2 -4 -2 4 -10 3
-18 -4 -8 -6 -11 -15 -8 -20 3 -5 -11 0 -31 11 -20 11 -33 15 -29 8 12 -19 14
-39 3 -32 -5 3 -9 0 -9 -5 0 -6 -5 -11 -11 -11 -7 0 -18 -8 -25 -17 -10 -13
-13 -14 -9 -3 3 9 -1 24 -9 35 -13 18 -14 17 -11 -8 3 -20 -1 -27 -12 -25 -9
2 -18 -4 -20 -12 -4 -13 -3 -13 6 0 12 17 14 10 5 -14 -5 -12 -9 -13 -19 -3
-7 6 -11 17 -8 23 2 7 0 15 -6 19 -6 3 -9 0 -6 -7 7 -18 -35 -68 -60 -72 -11
-2 -20 -8 -20 -15 0 -6 -6 -16 -14 -20 -11 -7 -9 -10 9 -16 18 -6 20 -9 9 -16
-8 -5 -21 -8 -29 -8 -10 0 -8 3 4 8 19 7 19 8 -3 14 -13 3 -20 3 -17 0 9 -9
-14 -44 -24 -38 -6 3 -7 -1 -3 -11 5 -15 7 -15 15 0 5 9 13 16 18 16 6 0 2 -9
-7 -19 -13 -16 -20 -18 -37 -9 -20 11 -20 10 -3 -9 19 -22 22 -33 6 -33 -5 0
-7 5 -4 10 3 6 -3 10 -15 10 -13 0 -19 4 -14 12 4 7 3 8 -4 4 -6 -4 -9 -13 -6
-21 4 -8 11 -12 17 -8 6 3 7 1 3 -6 -4 -6 -16 -9 -27 -6 -11 4 -19 2 -19 -5 0
-6 5 -8 10 -5 6 3 10 1 10 -5 0 -8 6 -8 20 0 16 8 18 8 14 -4 -3 -9 -11 -14
-17 -13 -7 1 -11 -6 -11 -16 2 -14 -1 -15 -13 -6 -11 10 -11 14 -1 20 7 5 9 9
3 9 -5 0 -17 -5 -25 -10 -8 -5 -10 -10 -4 -10 7 0 15 -8 19 -17 5 -15 4 -16
-6 -5 -21 20 -33 14 -14 -8 10 -11 16 -20 14 -21 -2 0 -12 -2 -22 -4 -15 -3
-16 -1 -5 12 12 15 11 15 -9 2 -14 -8 -21 -20 -18 -31 3 -9 0 -20 -6 -24 -7
-4 -9 -3 -5 4 3 6 1 14 -5 18 -8 4 -9 3 -5 -4 4 -7 2 -12 -5 -12 -19 0 -5 -10
21 -15 26 -5 43 -18 20 -15 -22 3 -60 -11 -60 -22 0 -5 4 -7 9 -3 5 3 13 0 17
-6 4 -8 3 -9 -4 -5 -15 9 -16 -6 -2 -20 7 -7 6 -11 -4 -11 -8 0 -13 4 -10 8 2
4 -1 11 -7 15 -8 5 -9 3 -4 -6 6 -9 4 -12 -7 -8 -8 4 -15 0 -15 -8 0 -7 4 -11
8 -9 4 3 15 2 24 -1 16 -6 16 -8 1 -16 -9 -5 -13 -14 -10 -20 4 -6 0 -15 -7
-20 -11 -7 -11 -11 -1 -15 6 -2 12 -9 12 -15 0 -6 -6 -5 -15 2 -9 7 -14 18
-11 25 2 6 -2 12 -9 12 -11 0 -11 -5 0 -27 11 -20 11 -30 2 -39 -8 -8 -8 -14
0 -22 15 -15 5 -39 -15 -39 -13 0 -12 3 4 16 10 8 13 12 5 8 -7 -3 -18 0 -23
7 -8 11 -9 10 -4 -3 3 -11 0 -18 -7 -19 -9 0 -9 -2 1 -6 6 -2 10 -9 7 -13 -3
-5 7 -7 22 -4 l28 4 -25 -14 c-22 -13 -26 -13 -37 1 -7 9 -13 12 -13 6 0 -7 4
-14 9 -18 6 -3 8 -14 6 -25 -2 -12 0 -18 4 -15 5 3 12 -2 15 -11 4 -12 2 -15
-9 -10 -8 3 -15 1 -15 -4 0 -10 15 -14 35 -10 6 1 4 -4 -2 -11 -10 -10 -10
-16 0 -28 10 -14 10 -14 -4 -4 -13 11 -16 9 -16 -16 0 -22 4 -28 16 -24 9 3 6
-2 -7 -11 -12 -10 -19 -22 -16 -28 4 -6 9 -5 15 3 4 7 10 11 13 8 3 -3 -4 -16
-17 -29 -12 -14 -21 -26 -19 -27 1 -2 2 -10 2 -19 0 -14 -2 -15 -17 -3 -9 8
-14 9 -10 2 4 -6 4 -13 0 -16 -5 -2 -2 -2 5 -1 7 2 12 -4 10 -14 -2 -12 3 -16
17 -14 11 2 16 -1 10 -5 -21 -16 -26 -76 -9 -107 12 -24 11 -24 -7 -13 -11 7
-17 17 -15 23 2 6 -1 11 -8 11 -6 0 -12 -8 -12 -18 0 -10 4 -15 8 -13 11 7 10
-4 -3 -28 -8 -15 -8 -19 0 -14 6 4 11 0 11 -9 0 -10 -5 -13 -12 -9 -8 5 -7 0
2 -11 16 -20 16 -21 -8 -49 -10 -12 -12 -16 -3 -11 9 5 12 3 9 -6 -3 -8 -10
-13 -15 -12 -5 1 -10 -5 -10 -12 0 -12 3 -12 16 -2 26 20 30 29 26 64 -1 18 2
36 8 40 6 3 7 1 3 -5 -4 -7 -1 -12 6 -12 9 0 10 -3 2 -8 -6 -4 -10 -16 -8 -27
2 -11 -10 -39 -26 -62 -33 -45 -35 -53 -19 -53 5 0 7 4 4 10 -3 5 0 7 8 4 21
-8 17 -32 -5 -26 -10 2 -18 -1 -18 -7 0 -7 6 -9 13 -5 6 4 9 4 5 -1 -4 -4 -2
-15 5 -24 11 -14 10 -15 -7 -1 -18 14 -19 13 -13 -3 4 -12 3 -16 -4 -11 -7 4
-9 -4 -6 -25 3 -17 1 -29 -4 -25 -8 5 -13 -10 -10 -29 1 -5 -3 -6 -9 -2 -5 3
-15 -5 -21 -19 -7 -14 -16 -23 -20 -20 -5 3 -10 0 -10 -5 -1 -6 -2 -15 -3 -21
0 -5 -4 -10 -8 -10 -5 0 -15 0 -24 0 -8 0 -13 4 -10 8 3 5 -1 9 -9 9 -12 0
-12 -4 2 -20 17 -19 17 -20 -4 -8 -27 14 -32 -3 -5 -18 23 -14 6 -14 -19 -1
-11 7 -19 7 -19 1 0 -5 4 -11 9 -13 5 -1 2 -10 -7 -18 -14 -13 -15 -13 -10 1
3 8 -1 24 -9 34 -14 19 -14 19 -8 -6 6 -24 4 -26 -18 -24 -13 2 -35 8 -48 15
-20 9 -21 9 -8 -2 9 -7 14 -20 11 -28 -4 -11 -2 -13 9 -4 8 5 20 9 27 8 6 -1
17 -2 22 -3 6 0 10 -6 10 -12 0 -8 -4 -8 -12 -2 -11 8 -33 10 -40 3 -10 -8
-39 -6 -45 2 -3 7 -1 8 5 4 8 -5 10 -1 5 9 -4 12 -8 13 -13 5 -4 -7 -13 -9
-19 -6 -6 4 -8 13 -4 19 4 7 0 6 -10 -2 -9 -7 -17 -10 -17 -6 0 4 -6 2 -14 -4
-10 -8 -16 -9 -19 -1 -3 6 -5 6 -3 -1 3 -15 34 -21 42 -8 6 11 24 2 24 -11 0
-5 -8 -6 -17 -3 -16 6 -17 5 -3 -13 14 -19 14 -19 -8 0 -12 11 -22 16 -22 12
0 -3 -15 1 -32 10 -31 16 -32 16 -19 0 12 -15 12 -17 0 -14 -8 2 -17 11 -21
21 -4 9 -13 17 -20 17 -9 0 -9 -3 2 -10 11 -7 11 -10 2 -10 -7 0 -23 10 -35
23 -12 12 -19 18 -15 13 4 -5 3 -15 -3 -23 -8 -9 -8 -13 -1 -13 6 0 12 6 15
13 3 6 5 2 4 -9 -1 -19 -4 -20 -24 -11 -15 6 -20 14 -14 21 5 6 5 20 0 31 -9
18 -9 18 -5 -3 3 -15 0 -22 -7 -19 -7 2 -11 11 -11 20 1 10 -3 14 -10 10 -19
-12 -30 -11 -44 3 -10 11 -10 14 -1 14 7 0 9 3 6 6 -4 4 -13 1 -21 -5 -10 -8
-16 -9 -21 -1 -9 14 -25 13 -21 -2 1 -7 1 -10 -1 -6 -2 3 -15 4 -29 2 -22 -4
-23 -2 -12 10 8 8 15 10 19 4 3 -5 9 -2 13 8 4 10 4 15 0 11 -4 -4 -14 -1 -22
6 -9 6 -13 8 -11 2 3 -5 -3 -19 -14 -29 -17 -16 -19 -16 -14 -3 3 9 2 19 -3
22 -4 3 -11 -1 -13 -7 -4 -10 -6 -10 -6 0 -1 6 8 21 19 32 11 11 16 20 11 20
-6 0 -13 -4 -16 -10 -8 -13 -35 12 -27 25 3 6 -2 4 -11 -4 -15 -12 -21 -9 -18
11 0 4 -7 4 -16 1 -11 -4 -14 -3 -9 6 4 6 4 11 -1 10 -21 -4 -34 2 -27 12 4 8
0 8 -15 0 -26 -14 -29 3 -3 19 12 8 13 10 2 8 -21 -3 -82 31 -75 42 3 5 0 12
-6 16 -7 4 -9 3 -6 -3 4 -6 -2 -13 -13 -16 -11 -3 -18 0 -17 5 1 6 -9 12 -22
14 -14 3 -27 7 -30 11 -3 3 4 3 17 0 12 -3 22 -2 22 3 0 12 -30 21 -42 13 -6
-3 -8 -1 -4 5 3 5 1 12 -5 14 -9 3 -9 9 -1 24 7 14 7 25 0 35 -8 11 -9 11 -4
-3 3 -10 1 -20 -4 -23 -11 -7 -42 8 -41 18 3 21 -1 27 -15 27 -15 0 -14 3 1
27 l18 28 -21 -19 c-14 -12 -22 -14 -22 -7 0 7 -5 9 -10 6 -6 -3 -13 1 -16 10
-4 10 -13 14 -23 11 -13 -5 -13 -4 2 8 15 12 15 15 2 26 -18 15 -20 41 -2 36
6 -1 9 -1 4 1 -4 3 -5 8 -3 12 3 4 -1 8 -9 8 -8 0 -12 -3 -10 -7 2 -3 -1 -12
-7 -20 -8 -13 -9 -12 -5 2 4 10 -3 23 -20 33 -18 12 -22 19 -13 25 14 9 -3 50
-21 50 -6 0 -9 6 -6 14 6 16 -10 36 -27 32 -6 -2 -8 -1 -3 1 4 3 7 9 7 14 0 6
-5 7 -12 3 -7 -5 -8 -3 -2 7 13 22 14 41 1 36 -7 -2 -12 -9 -12 -14 0 -6 -3
-14 -7 -18 -8 -9 -4 13 9 45 7 15 7 29 2 34 -13 15 -11 28 4 20 9 -5 9 -3 -1
7 -9 9 -15 10 -20 3 -7 -10 -42 -27 -42 -20 0 2 15 14 33 26 17 12 25 20 16
17 -9 -3 -21 -2 -28 2 -15 10 -4 39 17 44 10 3 0 4 -20 2 -22 -2 -38 1 -38 7
0 5 6 8 14 5 8 -3 22 1 33 9 17 14 17 15 -3 5 -18 -9 -23 -5 -43 35 -12 25
-18 43 -13 40 4 -2 14 -1 22 5 13 7 13 9 0 10 -8 1 -19 0 -25 -1 -5 -1 -7 2
-3 6 4 4 0 13 -10 21 -16 12 -16 13 1 7 13 -5 16 -2 11 10 -3 9 -1 16 4 16 6
0 9 -9 7 -20 -3 -13 0 -18 7 -14 7 5 8 2 3 -7 -5 -8 -5 -11 0 -7 4 4 15 2 23
-5 13 -11 14 -9 1 11 -8 12 -18 22 -23 22 -5 0 -1 10 10 22 15 19 16 20 2 9
-11 -8 -18 -9 -18 -3 0 6 8 16 18 21 13 8 8 9 -20 7 -21 -2 -35 0 -32 5 3 5
10 6 16 3 7 -4 8 2 2 17 -4 13 -7 29 -7 34 1 6 2 24 3 40 2 41 -4 65 -19 74
-10 6 -9 10 3 14 22 9 20 28 -1 21 -16 -5 -16 -4 0 6 14 9 16 15 6 26 -6 8 -8
14 -3 14 5 0 2 5 -6 10 -12 7 -10 9 7 7 12 0 19 -5 17 -9 -3 -4 0 -8 6 -8 6 0
10 6 9 13 -3 27 2 36 18 31 15 -5 15 -4 3 4 -8 6 -18 8 -23 5 -5 -3 -7 0 -5 8
3 8 12 13 19 11 11 -3 11 -1 2 9 -9 9 -10 16 -2 26 7 7 8 13 3 13 -4 0 1 7 12
16 18 15 18 15 -3 5 -17 -9 -22 -7 -28 7 -10 25 -17 68 -10 61 3 -4 8 -17 10
-29 6 -31 10 -34 32 -20 17 11 17 11 0 6 -12 -4 -17 -2 -14 6 2 7 9 12 15 11
13 -3 7 36 -7 50 -5 5 -6 19 -1 31 4 11 8 24 9 29 2 11 15 3 17 -11 1 -6 -1
-10 -6 -7 -4 3 -10 -4 -13 -14 -3 -12 1 -22 10 -25 8 -3 11 -1 8 4 -3 6 -3 16
2 23 9 15 14 36 14 60 0 9 4 15 9 12 6 -3 7 1 4 10 -5 13 -9 13 -23 3 -13 -10
-13 -9 2 8 9 11 14 24 10 29 -5 4 -3 5 3 2 16 -9 25 18 11 32 -9 10 -9 12 2 9
7 -2 16 3 19 11 3 8 0 11 -7 7 -7 -5 -8 -1 -4 10 4 11 8 13 11 6 2 -8 9 -9 23
-2 14 8 19 7 19 -1 0 -7 3 -10 6 -7 3 4 1 15 -4 25 -10 19 -6 43 8 43 4 0 6
-10 4 -22 -4 -21 -4 -21 5 -3 5 12 5 24 0 29 -12 13 -11 26 2 26 5 0 7 -4 4
-10 -3 -5 -1 -10 5 -10 6 0 8 11 6 24 -3 18 -1 23 9 20 7 -3 16 0 20 6 5 8 11
7 23 -2 15 -12 16 -11 3 5 -10 13 -17 14 -26 7 -10 -8 -15 -8 -21 1 -5 8 -3 9
6 4 9 -6 10 -1 5 16 -3 13 -3 19 2 13 4 -6 17 -14 28 -18 11 -4 16 -4 12 0 -4
4 -1 14 6 22 11 13 9 14 -13 2 -23 -12 -24 -12 -11 3 16 19 41 23 41 5 0 -6 2
-9 5 -6 10 9 -7 38 -18 31 -6 -3 -7 -1 -3 6 4 6 11 9 16 6 12 -7 29 26 22 44
-3 10 1 12 14 8 18 -7 18 -6 0 8 -11 8 -16 15 -11 15 5 0 19 -10 32 -22 13
-12 23 -16 23 -10 0 7 -4 12 -10 12 -15 0 -7 24 10 31 8 4 21 1 29 -5 12 -9
12 -8 0 11 -9 16 -16 19 -21 10 -5 -7 -7 -3 -5 10 2 12 7 26 12 30 4 5 5 3 2
-3 -4 -6 3 -20 15 -30 13 -12 18 -13 13 -4 -15 24 -14 39 1 33 8 -3 11 -10 7
-17 -4 -6 1 -5 10 3 18 14 24 47 7 36 -6 -4 -7 -12 -4 -18 4 -7 5 -10 1 -7 -3
3 -5 7 -4 10 0 3 -5 16 -13 30 -7 14 -9 22 -5 18 5 -4 15 -2 24 4 13 10 14 10
4 -2 -19 -21 -15 -35 5 -18 9 9 23 13 30 11 14 -6 16 13 2 22 -5 3 -10 12 -10
18 0 7 4 6 10 -3 10 -17 60 -22 57 -6 -1 6 3 10 10 9 13 -3 12 22 -2 34 -4 5
-5 1 0 -7 5 -8 6 -13 2 -10 -3 3 -6 9 -6 14 -2 14 28 16 36 4 3 -7 1 -8 -5 -4
-8 5 -10 1 -5 -10 5 -15 7 -15 15 0 5 9 6 21 3 26 -3 6 -2 10 4 10 6 0 8 8 5
18 -5 13 -4 14 4 3 8 -11 11 -11 16 0 3 8 4 5 1 -7 -4 -13 1 -26 12 -35 16
-12 17 -12 6 1 -7 9 -8 21 -3 29 4 8 6 21 3 30 -4 11 -1 10 9 -3 19 -24 47
-29 55 -10 3 8 9 11 14 8 5 -3 8 -2 7 3 -1 4 6 18 17 31 l20 22 18 -22 c18
-22 18 -22 1 12 -10 22 -11 30 -3 23 10 -10 16 -9 31 4 10 9 18 12 18 8 0 -4
10 0 22 11 12 10 18 13 14 7 -10 -18 9 -16 24 2 7 8 16 13 20 10 5 -3 11 -1
14 4 3 5 15 7 25 4 10 -3 30 2 43 11 20 13 25 14 25 2 0 -8 -6 -12 -13 -9 -17
6 -25 -10 -12 -27 8 -13 9 -12 5 1 -4 12 1 17 19 17 15 0 21 -5 17 -12 -4 -6
1 -5 10 3 9 7 17 10 17 6 0 -4 7 -1 16 6 20 16 44 21 44 8 0 -6 6 -4 14 3 8 7
12 16 9 21 -5 8 5 27 14 27 3 0 3 -7 -1 -15z m-1856 -5 c0 -5 -5 -10 -11 -10
-5 0 -7 5 -4 10 3 6 8 10 11 10 2 0 4 -4 4 -10z m1764 -7 c6 -14 8 -14 22 3
15 18 15 17 2 -5 -15 -25 -44 -36 -53 -21 -3 5 0 12 6 16 8 4 7 9 -2 15 -11 7
-11 9 2 9 9 0 20 -7 23 -17z m59 4 c3 -8 -1 -14 -8 -14 -7 0 -11 6 -8 14 3 7
6 13 8 13 2 0 5 -6 8 -13z m379 6 c-6 -2 -10 -9 -6 -14 3 -5 0 -9 -5 -9 -12 0
-14 13 -4 23 3 4 11 7 17 6 6 0 5 -3 -2 -6z m28 -8 c-15 -18 1 -20 18 -3 7 7
12 9 12 4 0 -4 -6 -14 -14 -21 -11 -12 -16 -12 -25 -1 -7 9 -7 16 1 24 17 17
23 15 8 -3z m-545 -5 c-3 -5 -12 -10 -18 -10 -7 0 -6 4 3 10 19 12 23 12 15 0z
m659 2 c3 -5 -1 -9 -9 -9 -8 0 -12 4 -9 9 3 4 7 8 9 8 2 0 6 -4 9 -8z m-889
-82 c-3 -5 -12 -10 -18 -10 -7 0 -6 4 3 10 19 12 23 12 15 0z m2565 6 c0 -3
-4 -8 -10 -11 -5 -3 -10 -1 -10 4 0 6 5 11 10 11 6 0 10 -2 10 -4z m-2603 -56
c-22 -27 -48 -33 -55 -12 -1 5 6 13 18 17 12 4 17 11 13 18 -4 7 2 5 12 -3 17
-14 18 -13 12 2 -4 12 -2 15 8 11 12 -4 10 -10 -8 -33z m1178 8 c-1 -13 -6
-21 -11 -19 -5 1 -7 8 -5 15 2 6 4 16 4 23 0 7 3 10 7 8 4 -2 6 -14 5 -27z
m1488 -34 c-7 -20 -14 -18 -11 4 2 10 -2 16 -10 14 -8 -1 -11 2 -7 8 10 16 35
-8 28 -26z m-4143 -18 c0 -3 -4 -8 -10 -11 -5 -3 -10 -1 -10 4 0 6 5 11 10 11
6 0 10 -2 10 -4z m2762 -21 c13 0 18 -7 18 -26 0 -8 -4 -8 -12 -1 -7 6 -17 11
-23 12 -5 1 -9 6 -7 11 1 5 -3 9 -9 9 -5 0 -7 5 -3 11 4 8 9 7 15 -2 4 -8 14
-14 21 -14z m-1462 -41 c-10 -11 -40 -9 -40 3 0 3 7 2 16 -1 11 -4 15 -2 11 8
-4 10 -1 13 9 9 11 -4 12 -9 4 -19z m-1366 -35 c-3 -5 -10 -7 -15 -3 -5 3 -7
10 -3 15 3 5 10 7 15 3 5 -3 7 -10 3 -15z m2913 15 c-3 -4 -2 -16 4 -28 10
-20 9 -20 -5 -2 -14 17 -13 36 1 36 4 0 3 -3 0 -6z m45 -66 c-7 -7 -12 -8 -12
-2 0 6 3 14 7 17 3 4 9 5 12 2 2 -3 -1 -11 -7 -17z m-3021 -51 c-10 -9 -11 -8
-5 6 3 10 9 15 12 12 3 -3 0 -11 -7 -18z m4349 -11 c-7 -7 -13 -7 -20 0 -6 6
-3 10 10 10 13 0 16 -4 10 -10z m40 -19 c0 -7 -4 -6 -10 3 -8 13 -10 12 -10
-4 0 -11 -3 -17 -6 -13 -4 3 -4 13 0 22 6 18 26 11 26 -8z m5 -95 c-3 -3 -11
0 -18 7 -9 10 -8 11 6 5 10 -3 15 -9 12 -12z m-1178 -10 c-9 -2 -15 -7 -12
-12 3 -5 13 -6 23 -3 18 7 17 5 -12 -17 -11 -8 -17 -10 -13 -4 4 7 0 17 -8 24
-20 17 -10 29 18 22 18 -5 19 -7 4 -10z m-3247 -12 c0 -5 -4 -10 -10 -10 -5 0
-10 5 -10 10 0 6 5 10 10 10 6 0 10 -4 10 -10z m4465 -81 c-4 -5 -12 -9 -18
-8 -9 0 -8 2 1 6 6 2 9 10 6 15 -4 7 -2 8 5 4 6 -4 9 -12 6 -17z m-4514 -36
c12 -16 12 -17 -2 -6 -21 17 -32 5 -13 -14 8 -8 12 -19 8 -24 -8 -14 -26 0
-18 14 4 7 1 7 -7 -1 -12 -11 -11 -15 4 -26 17 -13 17 -14 -1 -18 -15 -4 -18
1 -17 27 0 18 6 39 14 48 17 21 16 21 32 0z m3383 -29 c3 -8 2 -12 -4 -9 -6 3
-10 10 -10 16 0 14 7 11 14 -7z m-174 -94 c0 -5 -9 -8 -19 -7 -15 1 -17 4 -9
14 11 13 28 9 28 -7z m-3235 0 c3 -6 -1 -7 -9 -4 -18 7 -21 14 -7 14 6 0 13
-4 16 -10z m4559 2 c3 -5 -1 -9 -9 -9 -8 0 -12 4 -9 9 3 4 7 8 9 8 2 0 6 -4 9
-8z m-3469 -62 c3 -6 -1 -7 -9 -4 -18 7 -21 14 -7 14 6 0 13 -4 16 -10z m1983
-25 c-3 -3 -9 2 -12 12 -6 14 -5 15 5 6 7 -7 10 -15 7 -18z m-158 -67 c0 -6
-3 -8 -7 -5 -3 4 -12 2 -19 -4 -10 -8 -11 -16 -3 -30 6 -12 6 -19 0 -19 -17 0
-18 34 -2 56 16 22 31 23 31 2z m-1854 -25 c-10 -11 -19 -7 -22 10 -2 15 0 16
12 6 8 -6 12 -14 10 -16z m1801 -18 c4 -4 2 -5 -5 -1 -7 4 -15 1 -18 -8 -3 -9
-11 -16 -16 -16 -7 0 -6 5 1 13 6 8 8 16 5 20 -3 3 1 4 10 3 8 -1 19 -6 23
-11z m-1840 -61 c-3 -3 -12 -4 -19 -1 -8 3 -5 6 6 6 11 1 17 -2 13 -5z m3593
2 c0 -2 -7 -6 -15 -10 -8 -3 -15 -1 -15 4 0 6 7 10 15 10 8 0 15 -2 15 -4z
m-3580 -21 c-7 -8 -9 -15 -4 -15 5 0 1 -5 -9 -11 -10 -6 -21 -8 -24 -5 -4 3
-1 6 5 6 7 0 12 6 12 14 0 12 11 21 29 25 2 1 -2 -6 -9 -14z m-18 -60 c0 -5
-5 -10 -11 -11 -8 -2 -7 -1 0 3 8 4 7 8 -2 15 -11 8 -11 9 -1 6 8 -2 14 -8 14
-13z m1638 -125 c0 -5 -6 -12 -12 -16 -7 -4 -10 -4 -6 1 4 4 3 14 -4 22 -8 11
-7 12 6 7 9 -3 16 -10 16 -14z m-1652 -35 c6 -14 10 -25 8 -25 -2 0 -11 11
-20 25 -9 14 -13 25 -8 25 5 0 14 -11 20 -25z m1630 -34 c-7 -9 -13 -18 -15
-20 -1 -2 -1 5 0 16 0 11 7 20 14 20 10 0 10 -4 1 -16z m1997 10 c-3 -5 -1
-13 5 -16 8 -5 7 -11 -1 -21 -6 -8 -8 -14 -3 -14 5 0 1 -5 -8 -11 -10 -5 -15
-16 -12 -24 4 -8 2 -15 -4 -15 -14 0 -10 22 11 53 10 15 13 27 8 27 -6 0 -14
-8 -20 -17 -9 -16 -10 -16 -8 4 0 12 4 20 8 17 4 -2 9 3 13 11 3 8 8 15 11 15
4 0 4 -4 0 -9z m-3627 -26 c-3 -3 -9 2 -12 12 -6 14 -5 15 5 6 7 -7 10 -15 7
-18z m2 -55 c0 -5 -5 -10 -11 -10 -5 0 -7 5 -4 10 3 6 8 10 11 10 2 0 4 -4 4
-10z m26 -49 c-6 -9 -46 -22 -46 -15 0 3 10 9 23 14 29 11 29 11 23 1z m3595
-16 c1 -5 4 -14 9 -20 5 -6 0 -20 -10 -33 -10 -12 -21 -18 -24 -13 -4 5 0 11
6 13 18 6 16 52 -2 60 -12 6 -11 7 3 5 10 -1 18 -6 18 -12z m-2056 -35 c3 -5
1 -10 -4 -10 -6 0 -11 5 -11 10 0 6 2 10 4 10 3 0 8 -4 11 -10z m2065 -43 c0
-2 -8 -11 -18 -20 -15 -14 -19 -15 -19 -2 0 8 4 12 8 9 4 -2 10 0 14 6 6 10
15 14 15 7z m-2100 -80 c0 -4 -6 -2 -14 5 -8 7 -12 17 -9 22 5 8 23 -12 23
-27z m-1483 -59 c-3 -8 -6 -5 -6 6 -1 11 2 17 5 13 3 -3 4 -12 1 -19z m3563
-58 c0 -5 -2 -10 -4 -10 -3 0 -8 5 -11 10 -3 6 -1 10 4 10 6 0 11 -4 11 -10z
m-3505 -12 c4 -3 2 -9 -3 -12 -5 -3 -15 1 -21 8 -10 11 -9 14 3 12 9 -1 18 -5
21 -8z m-1118 -43 c0 -8 -4 -12 -9 -9 -5 3 -6 10 -3 15 9 13 12 11 12 -6z
m2537 -34 c3 -5 -2 -15 -12 -22 -15 -12 -16 -12 -5 2 7 9 10 19 6 22 -3 4 -4
7 0 7 3 0 8 -4 11 -9z m-2500 -9 c2 -4 -5 -9 -17 -9 -17 -2 -19 0 -7 7 18 12
18 12 24 2z m-1 -47 c-3 -9 -8 -14 -10 -11 -3 3 -2 9 2 15 9 16 15 13 8 -4z
m1117 11 c0 -3 -4 -8 -10 -11 -5 -3 -10 -1 -10 4 0 6 5 11 10 11 6 0 10 -2 10
-4z m1370 0 c0 -2 -7 -7 -16 -10 -8 -3 -12 -2 -9 4 6 10 25 14 25 6z m-2506
-51 c-4 -8 -10 -15 -15 -15 -4 0 -6 7 -3 15 4 8 10 15 15 15 4 0 6 -7 3 -15z
m2515 -59 c9 -11 9 -16 -1 -22 -7 -4 -10 -4 -6 1 4 4 3 14 -3 22 -6 7 -9 13
-6 13 2 0 10 -6 16 -14z m-2486 -13 c-6 -16 -5 -17 13 -3 15 11 16 11 7 0 -19
-21 -16 -34 5 -19 9 7 14 9 10 5 -4 -5 -3 -15 4 -23 9 -11 8 -13 -2 -11 -7 2
-15 -3 -18 -11 -3 -9 0 -11 8 -6 9 6 11 4 5 -5 -6 -10 -4 -12 8 -7 24 9 21 0
-3 -13 -11 -6 -19 -7 -18 -3 1 4 -3 18 -10 31 -7 12 -10 22 -7 22 3 0 1 9 -5
20 -6 11 -8 25 -5 30 10 16 15 11 8 -7z m4577 -4 c0 -5 -4 -9 -8 -9 -5 0 -9 7
-9 15 0 8 4 12 9 9 4 -3 8 -9 8 -15z m14 -34 c3 -8 1 -15 -4 -15 -6 0 -10 7
-10 15 0 8 2 15 4 15 2 0 6 -7 10 -15z m-3400 -3 c3 -5 -1 -9 -9 -9 -8 0 -12
4 -9 9 3 4 7 8 9 8 2 0 6 -4 9 -8z m1263 -7 c0 -8 -4 -12 -9 -9 -4 3 -8 9 -8
15 0 5 4 9 8 9 5 0 9 -7 9 -15z m-2394 -65 c-3 -12 -8 -19 -11 -16 -5 6 5 36
12 36 2 0 2 -9 -1 -20z m1191 -8 c3 -5 -1 -9 -9 -9 -8 0 -12 4 -9 9 3 4 7 8 9
8 2 0 6 -4 9 -8z m1197 -76 c-9 -11 -9 -15 1 -19 7 -3 3 -4 -9 -4 -21 1 -21 2
-6 19 19 21 31 24 14 4z m2176 -20 c0 -8 -6 -12 -15 -9 -11 5 -11 7 0 14 7 5
13 9 14 9 0 0 1 -6 1 -14z m-3117 -112 c0 -2 -9 0 -20 6 -15 8 -20 8 -21 -2 0
-9 -3 -8 -6 2 -4 8 -13 21 -22 28 -9 7 3 4 27 -8 23 -11 42 -23 42 -26z m-15
-13 c3 -5 2 -12 -3 -15 -5 -3 -9 1 -9 9 0 17 3 19 12 6z m81 -50 c1 -6 0 -7
-3 -1 -2 5 -10 7 -15 4 -7 -4 -8 -2 -4 4 7 11 -6 17 -27 13 -5 -1 -5 3 -2 9 8
13 47 -9 51 -29z m1932 -6 c2 -1 -5 -6 -15 -9 -9 -4 -14 -4 -10 0 4 4 -1 13
-11 21 -15 12 -14 13 8 2 14 -6 26 -13 28 -14z m-1880 -8 c7 -5 10 -12 7 -17
-6 -10 -45 9 -45 22 0 8 21 5 38 -5z m-1428 -43 c0 -8 -4 -12 -10 -9 -5 3 -10
10 -10 16 0 5 5 9 10 9 6 0 10 -7 10 -16z m3350 10 c0 -8 -19 -13 -24 -6 -3 5
1 9 9 9 8 0 15 -2 15 -3z m1392 -33 c-3 -9 -7 -11 -9 -4 -3 7 -11 9 -19 6 -8
-3 -14 -1 -14 4 0 5 11 9 24 9 17 0 22 -4 18 -15z m35 4 c0 -8 -4 -12 -9 -9
-4 3 -8 0 -8 -7 0 -7 -3 -9 -6 -6 -4 4 -1 13 6 22 15 19 17 19 17 0z m-3194
-19 c3 -6 -6 -11 -18 -11 -12 0 -21 5 -18 11 2 6 10 11 18 11 8 0 16 -5 18
-11z m60 -30 c3 -7 -1 -13 -9 -13 -7 0 -11 4 -8 8 2 4 0 10 -6 14 -5 3 -10 -2
-10 -11 0 -10 -3 -15 -6 -11 -4 3 -4 13 -1 21 7 17 33 12 40 -8z m3157 14 c0
-5 -5 -10 -11 -10 -5 0 -7 5 -4 10 3 6 8 10 11 10 2 0 4 -4 4 -10z m-4740 -34
c0 -11 -19 -15 -25 -6 -3 5 1 10 9 10 9 0 16 -2 16 -4z m3194 -25 c-2 -3 -10
1 -16 7 -9 9 -17 8 -32 -6 -21 -17 -21 -17 -2 5 15 18 21 20 37 10 10 -6 16
-13 13 -16z m-3159 9 c-3 -5 -12 -10 -18 -10 -7 0 -6 4 3 10 19 12 23 12 15 0z
m1659 -6 c3 -8 2 -12 -4 -9 -6 3 -10 10 -10 16 0 14 7 11 14 -7z m61 -4 c3 -5
1 -10 -4 -10 -6 0 -11 5 -11 10 0 6 2 10 4 10 3 0 8 -4 11 -10z m159 2 c3 -5
-1 -9 -9 -9 -8 0 -12 4 -9 9 3 4 7 8 9 8 2 0 6 -4 9 -8z m-57 -27 c0 -8 -4
-12 -9 -9 -5 3 -6 10 -3 15 9 13 12 11 12 -6z m1469 -7 c4 -7 3 -8 -4 -4 -7 4
-12 2 -12 -4 0 -6 -5 -8 -11 -4 -8 4 -7 9 2 15 18 11 17 11 25 -3z m-3246 -78
c0 -5 -2 -10 -4 -10 -3 0 -8 5 -11 10 -3 6 -1 10 4 10 6 0 11 -4 11 -10z m30
-5 c5 3 11 1 14 -4 4 -5 -2 -8 -11 -7 -9 2 -18 8 -19 15 -1 6 0 7 3 1 2 -5 9
-8 13 -5z m3275 -25 c3 -6 -1 -7 -9 -4 -18 7 -21 14 -7 14 6 0 13 -4 16 -10z
m-3228 -35 c0 -8 -4 -12 -9 -9 -4 3 -8 9 -8 15 0 5 4 9 8 9 5 0 9 -7 9 -15z
m3228 -45 c-3 -5 -1 -10 4 -10 6 0 11 -5 11 -11 0 -8 -5 -8 -15 1 -13 11 -12
30 1 30 3 0 2 -4 -1 -10z m-3112 -104 c3 -8 0 -17 -7 -19 -10 -4 -12 1 -9 14
6 23 9 24 16 5z m2847 0 c0 -3 -4 -8 -10 -11 -5 -3 -10 -1 -10 4 0 6 5 11 10
11 6 0 10 -2 10 -4z m445 -116 c3 -5 1 -10 -4 -10 -6 0 -11 5 -11 10 0 6 2 10
4 10 3 0 8 -4 11 -10z m25 -45 c7 -13 18 -22 23 -18 6 3 7 1 3 -6 -4 -6 0 -14
8 -17 9 -3 16 -11 16 -16 0 -6 -7 -4 -17 3 -9 8 -18 13 -20 12 -1 -2 -3 0 -2
3 0 3 -11 14 -26 25 -14 12 -23 25 -20 30 10 15 21 10 35 -16z m-540 -9 c-15
-15 -44 -17 -31 -2 6 7 18 13 26 13 11 0 12 -4 5 -11z m-21 -47 c-8 -5 -10 -9
-5 -9 5 0 3 -7 -4 -15 -6 -8 -9 -18 -6 -23 3 -5 -1 -9 -8 -9 -7 0 -13 6 -13
14 0 7 4 13 8 13 4 0 6 9 4 20 -2 11 0 18 6 15 5 -4 9 -1 9 5 0 6 5 8 11 4 8
-4 7 -9 -2 -15z m-49 -39 c0 -5 -5 -10 -11 -10 -5 0 -7 5 -4 10 3 6 8 10 11
10 2 0 4 -4 4 -10z m-2436 -21 c-3 -5 -10 -7 -15 -3 -5 3 -7 10 -3 15 3 5 10
7 15 3 5 -3 7 -10 3 -15z m34 -14 c-3 -3 -9 2 -12 12 -6 14 -5 15 5 6 7 -7 10
-15 7 -18z m3163 12 c-14 -18 -2 -30 16 -15 11 8 12 7 7 -6 -7 -17 -16 -20
-28 -8 -4 4 -12 8 -17 8 -5 1 -12 2 -16 3 -5 1 3 8 17 15 33 18 35 19 21 3z
m-3133 -29 c-2 -6 -12 -12 -21 -14 -9 -1 -15 2 -11 7 3 5 10 7 15 4 5 -4 9 -1
9 4 0 6 3 11 6 11 3 0 4 -5 2 -12z m3208 -3 c-1 -8 -5 -17 -8 -21 -5 -4 -4 16
1 34 3 9 9 -1 7 -13z m-3079 -101 c-3 -3 -12 -4 -19 -1 -8 3 -5 6 6 6 11 1 17
-2 13 -5z m2123 -20 c0 -8 4 -13 8 -10 4 2 8 -4 9 -13 1 -13 -5 -18 -23 -18
-28 0 -40 12 -23 23 8 4 9 3 5 -4 -4 -7 -3 -12 2 -12 17 0 21 12 11 37 -6 16
-6 22 1 18 6 -3 10 -13 10 -21z m-2036 -39 c-4 -11 -9 -10 -23 3 -11 11 -13
20 -7 24 14 9 36 -10 30 -27z m3262 -4 c-7 -10 22 -24 34 -16 5 3 12 1 15 -5
5 -8 11 -8 20 0 10 8 15 8 21 -1 5 -8 3 -9 -6 -4 -8 5 -11 3 -8 -6 3 -8 13
-16 23 -17 9 -2 15 0 12 5 -4 5 0 10 7 10 11 0 12 -4 3 -19 -14 -22 -21 -23
-37 -3 -7 8 -16 12 -22 9 -5 -3 -15 -1 -22 5 -7 6 -22 9 -34 6 -18 -3 -21 0
-18 18 6 28 5 27 12 27 3 0 3 -4 0 -9z m-1321 -61 c-3 -5 -1 -10 5 -10 6 0 8
-5 4 -11 -4 -8 -9 -7 -15 2 -7 12 -3 29 7 29 3 0 2 -4 -1 -10z m1485 0 c-18
-12 -30 -13 -30 -2 0 4 10 9 22 9 18 2 20 0 8 -7z m-1514 -35 c-9 -7 -14 -15
-11 -18 3 -4 2 -5 -1 -2 -4 2 -16 -7 -27 -21 -10 -14 -25 -23 -33 -20 -7 3
-15 0 -18 -7 -2 -7 -5 -5 -5 5 -1 9 4 20 9 23 6 3 10 1 10 -5 0 -6 5 -8 10 -5
8 5 7 12 -2 23 -10 14 -10 15 2 5 19 -17 30 -16 30 3 0 9 -5 12 -12 8 -7 -4
-8 -3 -4 4 4 6 14 8 23 5 11 -4 14 -3 9 5 -5 8 -1 10 11 5 16 -6 17 -5 3 13
-14 18 -14 18 3 5 17 -13 17 -16 3 -26z m-1676 10 c0 -8 -2 -15 -4 -15 -2 0
-6 7 -10 15 -3 8 -1 15 4 15 6 0 10 -7 10 -15z m3454 7 c3 -5 -1 -9 -9 -9 -8
0 -12 4 -9 9 3 4 7 8 9 8 2 0 6 -4 9 -8z m-3441 -37 c-3 -9 -8 -14 -10 -11 -3
3 -2 9 2 15 9 16 15 13 8 -4z m3643 -21 c-4 -9 -9 -15 -11 -12 -3 3 -3 13 1
22 4 9 9 15 11 12 3 -3 3 -13 -1 -22z m-3318 -79 c-3 -3 -9 2 -12 12 -6 14 -5
15 5 6 7 -7 10 -15 7 -18z m52 -33 c0 -1 -9 2 -20 8 -11 6 -20 15 -20 20 0 6
9 2 20 -7 11 -10 20 -19 20 -21z m1000 32 c0 -8 -19 -13 -24 -6 -3 5 1 9 9 9
8 0 15 -2 15 -3z m-894 -34 c8 0 14 5 14 12 0 6 2 9 5 6 3 -3 3 -12 -1 -21 -5
-13 -10 -14 -25 -6 -10 5 -19 15 -18 22 0 9 2 9 6 0 2 -7 11 -13 19 -13z m834
-5 c-7 -9 -15 -13 -17 -11 -6 6 20 36 26 30 2 -2 -2 -10 -9 -19z m-905 5 c3
-6 -1 -7 -9 -4 -18 7 -21 14 -7 14 6 0 13 -4 16 -10z m370 -9 c-3 -5 -1 -12 5
-16 5 -3 10 -11 10 -18 0 -6 -6 -2 -14 8 -13 18 -13 35 0 35 3 0 3 -4 -1 -9z
m-132 -8 c-7 -2 -19 -2 -25 0 -7 3 -2 5 12 5 14 0 19 -2 13 -5z m472 -4 c11
-16 1 -19 -13 -3 -7 8 -8 14 -3 14 5 0 13 -5 16 -11z m-271 -11 c-3 -5 -10 -6
-15 -3 -5 4 -9 1 -9 -4 0 -6 -5 -11 -11 -11 -8 0 -8 4 0 13 12 15 44 19 35 5z"/>
<path d="M2390 3759 c0 -3 16 -6 35 -6 19 1 32 3 29 6 -7 8 -64 8 -64 0z"/>
<path d="M2470 3755 c0 -8 4 -15 10 -15 5 0 7 7 4 15 -4 8 -8 15 -10 15 -2 0
-4 -7 -4 -15z"/>
<path d="M2315 3750 c3 -5 8 -10 11 -10 2 0 4 5 4 10 0 6 -5 10 -11 10 -5 0
-7 -4 -4 -10z"/>
<path d="M2370 3740 c0 -5 5 -10 11 -10 5 0 7 5 4 10 -3 6 -8 10 -11 10 -2 0
-4 -4 -4 -10z"/>
<path d="M2600 3735 c-7 -9 -10 -18 -6 -22 3 -3 6 -1 6 5 0 6 8 12 18 14 11 2
13 6 6 11 -7 4 -17 0 -24 -8z"/>
<path d="M2169 3723 c-13 -16 -12 -17 4 -4 16 13 21 21 13 21 -2 0 -10 -8 -17
-17z"/>
<path d="M1956 3723 c-4 -4 -13 -8 -19 -8 -7 -1 -11 -6 -10 -12 3 -15 -25 -25
-33 -12 -4 6 -11 6 -20 -2 -8 -6 -14 -8 -14 -4 0 4 -7 2 -15 -5 -19 -16 -19
-27 -1 -27 8 0 12 6 10 12 -3 8 5 11 23 10 15 -1 37 3 48 9 11 5 24 9 28 8 5
-1 6 2 2 8 -3 5 -1 10 4 10 6 0 11 -5 11 -12 0 -6 3 -9 6 -5 3 3 2 13 -3 22
-5 8 -13 12 -17 8z"/>
<path d="M2127 3719 c7 -7 15 -10 18 -7 3 3 -2 9 -12 12 -14 6 -15 5 -6 -5z"/>
<path d="M2515 3721 c-3 -5 -2 -12 3 -15 5 -3 9 1 9 9 0 17 -3 19 -12 6z"/>
<path d="M1993 3705 c0 -8 4 -15 9 -15 4 0 8 4 8 9 0 6 -4 12 -8 15 -5 3 -9
-1 -9 -9z"/>
<path d="M2636 3687 c3 -10 9 -15 12 -12 3 3 0 11 -7 18 -10 9 -11 8 -5 -6z"/>
<path d="M2744 3692 c-12 -9 -12 -28 0 -39 5 -4 6 -3 3 4 -9 15 13 23 35 12
11 -6 19 -5 24 3 4 7 3 8 -4 4 -7 -4 -12 -2 -12 5 0 7 -3 9 -7 6 -3 -4 -11 -3
-17 3 -7 5 -16 6 -22 2z"/>
<path d="M2695 3681 c-3 -5 -2 -12 3 -15 5 -3 9 1 9 9 0 17 -3 19 -12 6z"/>
<path d="M2766 3638 c3 -5 10 -6 15 -3 13 9 11 12 -6 12 -8 0 -12 -4 -9 -9z"/>
<path d="M2939 3591 c11 -7 11 -9 0 -14 -8 -3 -9 -6 -3 -6 6 -1 16 5 22 12 8
10 6 13 -11 14 -15 2 -18 0 -8 -6z"/>
<path d="M1495 3470 c-4 -6 -5 -10 -3 -11 25 -6 38 -6 38 1 0 12 -29 20 -35
10z"/>
<path d="M3173 3414 c-3 -8 -1 -20 5 -26 8 -8 9 -4 5 13 l-5 24 18 -25 c10
-14 18 -29 16 -33 -1 -5 2 -6 8 -2 8 5 7 11 -1 21 -6 8 -8 14 -4 14 4 0 2 7
-5 15 -16 19 -29 19 -37 -1z"/>
<path d="M1410 3366 c0 -2 7 -7 16 -10 8 -3 12 -2 9 4 -6 10 -25 14 -25 6z"/>
<path d="M1367 3329 c7 -7 15 -10 18 -7 3 3 -2 9 -12 12 -14 6 -15 5 -6 -5z"/>
<path d="M1270 3180 c-9 -6 -10 -10 -3 -10 6 0 15 5 18 10 8 12 4 12 -15 0z"/>
<path d="M1251 3127 c-13 -21 -12 -21 5 -5 10 10 16 20 13 22 -3 3 -11 -5 -18
-17z"/>
<path d="M3360 3135 c-11 -13 -11 -18 0 -28 10 -9 11 -9 6 1 -4 7 -2 19 4 27
7 8 10 15 7 15 -2 0 -10 -7 -17 -15z"/>
<path d="M3380 3091 c0 -6 4 -13 10 -16 6 -3 7 1 4 9 -7 18 -14 21 -14 7z"/>
<path d="M1180 3066 c0 -2 7 -7 16 -10 8 -3 12 -2 9 4 -6 10 -25 14 -25 6z"/>
<path d="M3331 3044 c0 -11 3 -14 6 -6 3 7 2 16 -1 19 -3 4 -6 -2 -5 -13z"/>
<path d="M1165 3040 c-3 -5 -3 -10 1 -10 3 0 -1 -11 -10 -24 -10 -17 -12 -27
-5 -31 6 -4 13 -4 16 -1 4 3 0 6 -8 6 -11 0 -11 2 -1 9 7 4 14 18 15 29 1 17
6 21 22 16 16 -4 17 -3 5 5 -19 13 -27 14 -35 1z"/>
<path d="M3280 3041 c0 -6 4 -13 10 -16 6 -3 7 1 4 9 -7 18 -14 21 -14 7z"/>
<path d="M3134 3002 c8 -14 -30 -35 -47 -27 -6 4 -3 0 7 -9 21 -17 31 -14 46
14 7 13 7 21 -2 26 -7 4 -8 3 -4 -4z"/>
<path d="M3037 2963 c-4 -3 -2 -12 4 -20 14 -17 -2 -17 -21 0 -12 10 -12 9 -2
-4 6 -9 8 -19 4 -24 -4 -4 3 -2 16 4 23 12 30 31 11 31 -5 0 -7 5 -4 10 7 11
2 13 -8 3z"/>
<path d="M2884 2854 c-18 -14 -18 -15 4 -4 12 6 22 13 22 15 0 8 -5 6 -26 -11z"/>
<path d="M2755 2740 c3 -5 8 -10 11 -10 2 0 4 5 4 10 0 6 -5 10 -11 10 -5 0
-7 -4 -4 -10z"/>
<path d="M1049 2608 c7 -10 10 -18 5 -18 -4 0 -3 -5 4 -12 9 -9 15 -9 25 1 10
10 8 11 -8 5 -18 -7 -19 -6 -5 12 8 10 10 16 6 12 -5 -4 -16 -2 -25 5 -14 11
-14 10 -2 -5z"/>
<path d="M1046 2551 c-1 -3 3 -17 11 -31 11 -20 13 -21 11 -5 -1 11 1 25 4 31
4 6 0 11 -8 11 -8 0 -16 -3 -18 -6z"/>
<path d="M1060 2461 c0 -6 4 -13 10 -16 6 -3 7 1 4 9 -7 18 -14 21 -14 7z"/>
<path d="M1076 2415 c-17 -13 -18 -17 -6 -28 8 -6 11 -8 7 -3 -4 5 0 18 10 28
19 22 15 23 -11 3z"/>
<path d="M2595 2410 c-4 -6 -11 -8 -16 -5 -5 4 -9 2 -9 -3 0 -6 8 -13 17 -16
10 -4 14 -4 10 0 -4 4 -2 13 4 21 6 7 9 13 6 13 -3 0 -9 -5 -12 -10z"/>
<path d="M2559 2338 c0 -2 -2 -11 -4 -21 -3 -15 -1 -16 11 -6 7 6 11 15 8 20
-5 9 -13 12 -15 7z"/>
<path d="M1070 2240 c0 -5 4 -10 9 -10 6 0 13 5 16 10 3 6 -1 10 -9 10 -9 0
-16 -4 -16 -10z"/>
<path d="M1087 2224 c-7 -7 2 -34 12 -34 4 0 7 9 8 20 2 19 -8 26 -20 14z"/>
<path d="M1120 2130 c-9 -6 -10 -10 -3 -10 6 0 15 5 18 10 8 12 4 12 -15 0z"/>
<path d="M2513 2126 c0 -15 22 -15 34 0 4 5 4 6 -1 2 -5 -4 -14 -3 -21 2 -8 7
-12 5 -12 -4z"/>
<path d="M2510 2093 c8 -3 19 -11 23 -17 6 -7 7 -6 4 4 -2 8 -12 16 -23 17
-13 2 -15 1 -4 -4z"/>
<path d="M2513 2049 c-2 -19 11 -26 21 -10 3 5 0 14 -7 19 -10 8 -13 6 -14 -9z"/>
<path d="M2508 2008 c6 -6 8 -17 5 -24 -3 -8 1 -14 8 -14 7 0 9 3 6 7 -4 3 -2
12 4 20 6 7 10 13 8 14 -36 7 -41 7 -31 -3z"/>
<path d="M1187 1999 c7 -7 15 -10 18 -7 3 3 -2 9 -12 12 -14 6 -15 5 -6 -5z"/>
<path d="M1176 1968 c4 -7 13 -20 20 -28 7 -8 13 -19 13 -25 0 -5 5 -11 13
-13 8 -2 9 0 3 5 -5 4 -11 15 -13 23 -2 8 -8 17 -13 18 -5 2 -9 10 -9 18 0 8
-5 14 -11 14 -5 0 -7 -6 -3 -12z"/>
<path d="M2506 1868 c1 -16 5 -32 9 -36 4 -4 5 0 3 8 -3 8 -1 22 3 32 6 10 4
18 -4 21 -9 3 -12 -4 -11 -25z"/>
<path d="M1230 1881 c0 -6 4 -12 8 -15 5 -3 9 1 9 9 0 8 -4 15 -9 15 -4 0 -8
-4 -8 -9z"/>
<path d="M1230 1841 c0 -11 26 -22 34 -14 3 4 6 11 6 17 0 6 -5 4 -10 -4 -6
-10 -10 -11 -10 -2 0 6 -4 12 -10 12 -5 0 -10 -4 -10 -9z"/>
<path d="M1286 1768 c3 -5 10 -6 15 -3 13 9 11 12 -6 12 -8 0 -12 -4 -9 -9z"/>
<path d="M1307 1747 c-3 -8 -2 -18 1 -23 10 -13 32 -16 32 -4 0 6 -7 10 -15
10 -9 0 -12 6 -9 15 4 8 4 15 1 15 -3 0 -7 -6 -10 -13z"/>
<path d="M2475 1700 c-3 -5 -1 -10 4 -10 6 0 11 5 11 10 0 6 -2 10 -4 10 -3 0
-8 -4 -11 -10z"/>
<path d="M1430 1600 c0 -5 5 -10 10 -10 6 0 10 5 10 10 0 6 -4 10 -10 10 -5 0
-10 -4 -10 -10z"/>
<path d="M1468 1583 c7 -3 16 -2 19 1 4 3 -2 6 -13 5 -11 0 -14 -3 -6 -6z"/>
<path d="M1486 1557 c3 -10 9 -15 12 -12 3 3 0 11 -7 18 -10 9 -11 8 -5 -6z"/>
<path d="M2450 1530 c0 -5 0 -13 1 -17 0 -4 -8 -11 -18 -15 -17 -7 -17 -8 1
-5 16 2 36 47 21 47 -3 0 -5 -4 -5 -10z"/>
<path d="M2440 1470 c10 -6 11 -10 3 -10 -7 0 -13 -7 -13 -16 0 -8 -4 -12 -10
-9 -5 3 -10 1 -10 -4 0 -19 17 -12 33 13 16 24 13 36 -7 36 -6 0 -4 -5 4 -10z"/>
<path d="M2379 1416 c13 -15 13 -19 0 -27 -16 -10 -8 -12 15 -3 22 8 20 17 -6
33 -21 13 -22 13 -9 -3z"/>
<path d="M1735 1381 c-3 -5 -1 -12 5 -16 5 -3 10 1 10 9 0 18 -6 21 -15 7z"/>
<path d="M2360 1360 c13 -24 17 -25 17 -5 0 8 -6 16 -14 19 -11 4 -11 1 -3
-14z"/>
<path d="M2076 3752 c-3 -5 1 -9 9 -9 8 0 12 4 9 9 -3 4 -7 8 -9 8 -2 0 -6 -4
-9 -8z"/>
<path d="M1714 3624 c-18 -14 -18 -15 4 -4 12 6 22 13 22 15 0 8 -5 6 -26 -11z"/>
<path d="M3890 766 c0 -2 8 -10 18 -17 15 -13 16 -12 3 4 -13 16 -21 21 -21
13z"/>
<path d="M2261 4874 c0 -11 3 -14 6 -6 3 7 2 16 -1 19 -3 4 -6 -2 -5 -13z"/>
<path d="M2457 4877 c-3 -8 3 -14 16 -15 12 0 17 2 12 6 -6 4 -13 11 -16 15
-4 4 -9 2 -12 -6z"/>
<path d="M2500 4874 c11 -18 17 -20 32 -11 10 7 18 16 18 21 0 4 -7 3 -15 -4
-12 -10 -18 -10 -32 1 -15 13 -15 12 -3 -7z"/>
<path d="M2581 4868 c8 -19 16 -25 23 -19 6 5 14 10 19 10 4 1 7 3 7 6 0 3 0
8 0 11 0 4 -7 1 -15 -6 -13 -11 -18 -10 -30 6 -14 17 -14 17 -4 -8z"/>
<path d="M1847 4840 c-10 -12 -23 -18 -29 -14 -7 4 -8 3 -4 -4 9 -15 53 5 53
24 0 18 1 18 -20 -6z"/>
<path d="M2712 4834 c10 -10 20 -15 24 -12 3 4 -5 12 -18 18 -22 12 -22 12 -6
-6z"/>
<path d="M2846 4825 c-11 -8 -15 -15 -9 -15 6 0 16 7 23 15 16 19 11 19 -14 0z"/>
<path d="M1710 4820 c-9 -6 -10 -10 -3 -10 6 0 15 5 18 10 8 12 4 12 -15 0z"/>
<path d="M1635 4800 c3 -5 8 -10 11 -10 2 0 4 5 4 10 0 6 -5 10 -11 10 -5 0
-7 -4 -4 -10z"/>
<path d="M1594 4772 c17 -8 18 -9 3 -15 -9 -3 -19 -2 -22 3 -4 6 -12 10 -18 9
-9 0 -8 -2 1 -6 6 -2 9 -9 6 -14 -3 -6 -11 -5 -20 2 -9 7 -14 8 -14 1 0 -6 -9
-9 -20 -7 -11 2 -18 0 -15 -6 4 -5 1 -9 -5 -9 -6 0 -8 -5 -4 -11 4 -8 9 -7 15
2 5 8 9 10 9 5 0 -5 7 -3 15 4 8 6 19 9 24 6 5 -4 12 -2 15 3 4 5 18 8 32 6
18 -2 24 2 22 14 -2 9 -12 17 -23 18 -19 3 -19 3 -1 -5z"/>
<path d="M3156 4762 c-3 -5 1 -9 9 -9 8 0 12 4 9 9 -3 4 -7 8 -9 8 -2 0 -6 -4
-9 -8z"/>
<path d="M1406 4722 c-3 -5 1 -9 9 -9 8 0 12 4 9 9 -3 4 -7 8 -9 8 -2 0 -6 -4
-9 -8z"/>
<path d="M1304 4678 c-5 -7 -2 -8 6 -3 8 5 18 2 25 -8 11 -15 14 -15 31 -1 18
14 18 15 -5 8 -13 -3 -21 -2 -18 3 3 5 -3 9 -13 10 -11 1 -23 -3 -26 -9z"/>
<path d="M3496 4573 c-6 -14 -5 -15 5 -6 7 7 10 15 7 18 -3 3 -9 -2 -12 -12z"/>
<path d="M964 4473 c2 -14 -2 -23 -13 -26 -14 -4 -14 -5 1 -6 22 -1 28 9 17
34 -9 19 -9 19 -5 -2z"/>
<path d="M814 4356 c0 -28 28 -29 32 -2 1 10 0 15 -3 12 -4 -3 -11 -2 -18 4
-8 6 -11 2 -11 -14z"/>
<path d="M3940 4280 c-9 -6 -10 -10 -3 -10 6 0 15 5 18 10 8 12 4 12 -15 0z"/>
<path d="M540 4108 c-10 -21 -10 -21 3 -6 8 10 17 15 20 11 4 -3 7 -1 7 5 0
20 -19 13 -30 -10z"/>
<path d="M4115 4040 c3 -5 14 -14 23 -19 14 -7 18 -5 18 8 0 11 -9 18 -24 19
-13 1 -20 -2 -17 -8z"/>
<path d="M4163 4006 c-17 -20 42 -45 60 -26 9 10 9 11 -1 6 -7 -4 -21 -4 -33
-1 -16 5 -18 10 -8 21 15 18 -2 18 -18 0z"/>
<path d="M475 4000 c3 -6 -1 -13 -9 -16 -19 -7 -21 -30 -4 -40 7 -5 8 -3 3 5
-4 7 2 22 16 37 19 21 20 24 5 24 -9 0 -14 -5 -11 -10z"/>
<path d="M4250 3895 c6 -8 9 -18 6 -24 -3 -5 1 -12 10 -15 8 -3 13 -10 10 -15
-3 -5 1 -12 10 -15 25 -9 27 -7 10 10 -9 8 -13 20 -10 26 4 6 2 8 -3 5 -6 -4
-14 4 -17 18 -4 14 -11 25 -17 25 -8 0 -8 -5 1 -15z"/>
<path d="M4390 3711 c0 -6 4 -13 10 -16 6 -3 7 1 4 9 -7 18 -14 21 -14 7z"/>
<path d="M235 3699 c-4 -5 -3 -9 2 -8 19 3 33 -2 33 -12 0 -5 -4 -7 -10 -4 -5
3 -10 1 -10 -4 0 -15 15 -14 29 2 8 11 5 16 -14 25 -16 7 -26 8 -30 1z"/>
<path d="M4433 3645 c0 -8 4 -12 9 -9 5 3 6 10 3 15 -9 13 -12 11 -12 -6z"/>
<path d="M4446 3549 c10 -12 18 -24 16 -27 -2 -4 1 -7 8 -8 6 -2 6 0 1 2 -5 3
-7 17 -5 32 3 21 2 23 -6 12 -6 -10 -10 -11 -10 -2 0 6 -5 12 -12 12 -6 0 -3
-9 8 -21z"/>
<path d="M156 3513 c-6 -14 -5 -15 5 -6 7 7 10 15 7 18 -3 3 -9 -2 -12 -12z"/>
<path d="M154 3471 c14 -5 16 -10 8 -15 -7 -4 -16 -4 -22 -1 -6 3 -7 -1 -4 -9
3 -9 10 -13 15 -10 5 3 9 0 9 -5 0 -6 5 -11 11 -11 8 0 8 4 0 14 -8 10 -9 16
-1 21 14 9 3 25 -18 24 -14 0 -14 -2 2 -8z"/>
<path d="M95 3380 c-3 -5 -1 -10 4 -10 6 0 11 5 11 10 0 6 -2 10 -4 10 -3 0
-8 -4 -11 -10z"/>
<path d="M36 3233 c-6 -14 -5 -15 5 -6 7 7 10 15 7 18 -3 3 -9 -2 -12 -12z"/>
<path d="M7 3159 c7 -7 15 -10 18 -7 3 3 -2 9 -12 12 -14 6 -15 5 -6 -5z"/>
<path d="M4630 2855 c-7 -9 -11 -17 -8 -20 2 -2 12 4 21 15 9 11 13 20 8 20
-5 0 -14 -7 -21 -15z"/>
<path d="M4650 2846 c0 -2 7 -7 16 -10 8 -3 12 -2 9 4 -6 10 -25 14 -25 6z"/>
<path d="M4656 2722 c-3 -5 1 -9 9 -9 8 0 12 4 9 9 -3 4 -7 8 -9 8 -2 0 -6 -4
-9 -8z"/>
<path d="M4658 2688 c5 -5 16 -8 23 -6 8 3 3 7 -10 11 -17 4 -21 3 -13 -5z"/>
<path d="M4667 2223 c-3 -7 -3 -17 2 -40 0 -3 10 2 21 12 11 10 17 22 14 26
-6 11 -31 12 -37 2z m33 -7 c0 -2 -6 -9 -13 -15 -10 -8 -14 -7 -14 4 0 8 6 15
14 15 7 0 13 -2 13 -4z"/>
<path d="M4663 2128 c-1 -11 5 -18 15 -17 11 0 13 2 4 6 -10 4 -9 8 3 17 15
11 15 12 -2 12 -11 0 -20 -8 -20 -18z"/>
<path d="M4675 2081 c-3 -5 0 -13 6 -17 7 -4 9 -3 5 4 -3 5 0 13 6 15 9 4 10
6 1 6 -6 1 -14 -3 -18 -8z"/>
<path d="M4662 1920 c1 -13 11 -24 20 -26 14 -2 16 1 8 16 -16 30 -32 35 -28
10z"/>
<path d="M7 1839 c7 -7 15 -10 18 -7 3 3 -2 9 -12 12 -14 6 -15 5 -6 -5z"/>
<path d="M93 1631 c0 -11 5 -18 9 -15 4 3 5 11 1 19 -7 21 -12 19 -10 -4z"/>
<path d="M133 1557 c0 -7 9 -14 20 -14 11 -1 18 -1 16 0 -2 2 -11 8 -20 15
-12 9 -16 9 -16 -1z"/>
<path d="M190 1451 c-6 -12 -7 -21 -1 -21 10 0 24 30 17 37 -2 3 -9 -5 -16
-16z"/>
<path d="M4848 1398 c-5 -11 -2 -15 10 -13 9 2 23 4 30 4 6 1 12 6 12 11 0 7
-6 7 -19 0 -14 -7 -21 -6 -23 2 -3 8 -7 6 -10 -4z"/>
<path d="M220 1379 c0 -5 5 -7 10 -4 6 3 10 8 10 11 0 2 -4 4 -10 4 -5 0 -10
-5 -10 -11z"/>
<path d="M3555 1340 c-3 -5 1 -10 10 -10 9 0 13 5 10 10 -3 6 -8 10 -10 10 -2
0 -7 -4 -10 -10z"/>
<path d="M3592 1239 c-19 -7 -23 -29 -6 -29 3 0 2 5 -1 10 -4 6 5 10 19 10 14
0 26 5 26 10 0 12 -7 12 -38 -1z"/>
<path d="M340 1200 c0 -5 5 -10 11 -10 5 0 7 5 4 10 -3 6 -8 10 -11 10 -2 0
-4 -4 -4 -10z"/>
<path d="M3496 1188 c7 -11 34 -10 34 1 0 6 -9 9 -19 8 -11 0 -17 -5 -15 -9z"/>
<path d="M3595 1180 c3 -5 8 -10 11 -10 2 0 4 5 4 10 0 6 -5 10 -11 10 -5 0
-7 -4 -4 -10z"/>
<path d="M353 1173 c-7 -2 -13 -9 -13 -15 0 -6 7 -4 17 3 15 12 16 12 10 -3
-4 -12 -2 -15 9 -11 11 4 12 9 3 19 -6 8 -12 14 -13 13 0 0 -7 -3 -13 -6z"/>
<path d="M3496 1113 c-3 -7 0 -15 6 -19 7 -4 8 -3 4 4 -4 7 -2 13 3 13 26 3
30 4 35 10 3 3 -6 5 -19 5 -13 0 -27 -6 -29 -13z"/>
<path d="M3665 1081 c-3 -5 2 -17 11 -25 22 -22 31 -20 11 2 -10 10 -14 22
-10 25 3 4 4 7 0 7 -3 0 -8 -4 -12 -9z"/>
<path d="M3507 1066 c-4 -10 -1 -13 8 -9 8 3 12 9 9 14 -7 12 -11 11 -17 -5z"/>
<path d="M3630 1076 c0 -2 8 -10 18 -17 15 -13 16 -12 3 4 -13 16 -21 21 -21
13z"/>
<path d="M460 1020 c-12 -7 -10 -9 7 -7 12 0 19 5 17 9 -6 10 -6 10 -24 -2z"/>
<path d="M3736 954 c-4 -10 2 -23 14 -34 15 -13 17 -19 8 -23 -9 -4 -9 -6 -1
-6 22 -2 24 18 4 36 -13 11 -17 19 -10 24 7 4 8 9 1 13 -5 3 -13 -1 -16 -10z"/>
<path d="M3783 883 c4 -6 4 -13 0 -16 -5 -2 -2 -2 5 0 9 2 11 -4 7 -20 -3 -12
-3 -17 2 -12 5 6 12 13 16 16 4 3 -3 14 -15 25 -12 10 -18 14 -15 7z"/>
<path d="M629 847 c6 -8 9 -17 6 -21 -3 -3 0 -2 6 3 12 10 4 31 -13 31 -7 0
-7 -4 1 -13z"/>
<path d="M3415 841 c3 -5 1 -12 -5 -16 -6 -4 -8 -11 -4 -16 3 -5 1 -16 -5 -23
-9 -10 -8 -15 2 -19 10 -4 13 3 12 25 -1 17 4 32 11 35 15 6 9 23 -7 23 -6 0
-8 -4 -4 -9z"/>
<path d="M3440 820 c-9 -6 -10 -10 -3 -10 6 0 15 5 18 10 8 12 4 12 -15 0z"/>
<path d="M660 798 c0 -2 9 -11 20 -21 11 -9 20 -13 20 -7 0 5 -9 14 -20 20
-11 6 -20 9 -20 8z"/>
<path d="M730 740 c0 -5 7 -10 15 -10 9 0 18 -7 21 -15 9 -23 23 -18 17 5 -3
12 -8 19 -11 16 -2 -3 -13 -1 -23 5 -13 6 -19 6 -19 -1z"/>
<path d="M746 703 c-6 -14 -5 -15 5 -6 7 7 10 15 7 18 -3 3 -9 -2 -12 -12z"/>
<path d="M833 615 c0 -8 4 -12 9 -9 5 3 6 10 3 15 -9 13 -12 11 -12 -6z"/>
<path d="M960 560 c-12 -8 -11 -10 7 -10 12 0 24 -6 26 -12 4 -8 6 -9 6 -2 2
19 -23 34 -39 24z"/>
<path d="M3241 526 c-10 -12 -8 -14 14 -12 14 2 29 7 33 11 4 4 -4 4 -17 0
-16 -5 -21 -4 -17 4 10 16 1 14 -13 -3z"/>
<path d="M4190 518 c0 -6 8 -7 18 -4 14 5 13 3 -3 -10 -16 -14 -17 -16 -2 -11
12 5 17 1 18 -11 0 -14 2 -14 9 3 4 11 4 24 -1 29 -12 14 -39 16 -39 4z"/>
<path d="M3235 489 c-4 -6 -5 -12 -2 -15 2 -3 7 2 10 11 7 17 1 20 -8 4z"/>
<path d="M4310 462 c0 -7 5 -12 10 -12 6 0 10 -5 10 -11 0 -5 -5 -7 -12 -3 -7
5 -8 3 -3 -5 5 -9 10 -10 18 -2 8 8 6 16 -6 28 -11 11 -17 13 -17 5z"/>
<path d="M4277 449 c7 -7 15 -10 18 -7 3 3 -2 9 -12 12 -14 6 -15 5 -6 -5z"/>
<path d="M1190 401 c0 -5 5 -13 10 -16 6 -3 10 -2 10 4 0 5 -4 13 -10 16 -5 3
-10 2 -10 -4z"/>
<path d="M4583 353 c-24 -9 -13 -21 18 -19 17 1 42 -4 56 -11 14 -7 28 -11 31
-8 3 3 12 -1 20 -8 11 -8 14 -8 9 0 -4 6 -3 14 3 18 5 3 11 1 11 -4 1 -6 2
-15 3 -20 0 -5 5 -13 10 -18 6 -5 6 -2 1 6 -6 11 -4 13 11 7 15 -6 14 -2 -6
16 -13 13 -28 23 -31 23 -4 0 -10 3 -13 6 -4 4 -21 5 -38 3 -17 -2 -38 2 -46
9 -13 9 -14 9 -8 0 4 -8 1 -13 -9 -13 -9 0 -13 5 -10 10 7 11 6 11 -12 3z
m121 -24 c3 -3 -4 -5 -14 -6 -11 -1 -22 2 -24 6 -5 8 30 8 38 0z"/>
<path d="M1429 301 c6 -10 8 -20 6 -23 -3 -3 1 -5 9 -5 15 0 16 14 3 35 -13
20 -29 14 -18 -7z"/>
<path d="M4835 304 c-19 -14 -19 -15 2 -11 26 4 38 13 26 20 -4 3 -17 -1 -28
-9z"/>
<path d="M4886 299 c2 -4 -1 -9 -8 -11 -7 -3 -5 -7 6 -11 11 -4 15 -3 11 4 -4
6 -1 10 6 8 26 -3 39 1 39 12 0 8 -5 8 -15 -1 -8 -7 -15 -8 -15 -3 0 5 -7 10
-15 10 -8 0 -12 -4 -9 -8z"/>
<path d="M4985 302 c-5 -4 -11 -17 -11 -30 -1 -12 1 -21 3 -18 3 2 5 8 5 13 0
4 4 16 9 26 11 19 9 21 -6 9z"/>
<path d="M1470 284 c0 -8 5 -12 10 -9 6 4 8 11 5 16 -9 14 -15 11 -15 -7z"/>
<path d="M5069 283 c-12 -16 -12 -17 2 -6 9 7 20 9 24 5 5 -4 5 -1 1 6 -9 16
-11 15 -27 -5z"/>
<path d="M1390 286 c0 -2 7 -7 16 -10 8 -3 12 -2 9 4 -6 10 -25 14 -25 6z"/>
<path d="M2820 216 c0 -2 7 -9 15 -16 9 -7 15 -8 15 -2 0 5 -7 12 -15 16 -8 3
-15 4 -15 2z"/>
<path d="M1943 148 c-2 -16 0 -16 13 -4 17 18 18 23 1 23 -7 0 -14 -9 -14 -19z"/>
<path d="M2735 160 c3 -5 8 -10 11 -10 2 0 4 5 4 10 0 6 -5 10 -11 10 -5 0 -7
-4 -4 -10z"/>
<path d="M2146 145 c4 -8 10 -12 15 -9 11 6 2 24 -11 24 -5 0 -7 -7 -4 -15z"/>
</g>
</svg>
